<?xml version="1.0" encoding="UTF-8"?>
<!-- Generator: visioncortex VTracer -->
<svg id="svg" version="1.1" xmlns="http://www.w3.org/2000/svg" style="display: block;" viewBox="0 0 495 511"><path d="M0 0 C163.35 0 326.7 0 495 0 C495 168.63 495 337.26 495 511 C331.65 511 168.3 511 0 511 C0 342.37 0 173.74 0 0 Z " transform="translate(0,0)" style="fill: #FEFEFE;"/><path d="M0 0 C6.6355792 0.41911424 13.27321632 0.79328751 19.91166687 1.16323853 C25.84756904 1.49440896 31.78262503 1.8398495 37.71762085 2.18682861 C40.57077359 2.35341602 43.42412199 2.51560917 46.27774048 2.67401123 C50.22429442 2.89388903 54.16948232 3.13400782 58.11474609 3.37597656 C59.86050179 3.46971054 59.86050179 3.46971054 61.64152527 3.56533813 C69.62253497 4.07719473 77.67263431 4.69254198 84.05224609 9.87597656 C86.77447155 13.36382793 88.29767735 15.97638181 88.31967163 20.43858337 C88.33246658 21.61766769 88.33246658 21.61766769 88.34552002 22.8205719 C88.34461365 23.67408737 88.34370728 24.52760284 88.34277344 25.40698242 C88.34949066 26.31327393 88.35620789 27.21956543 88.36312866 28.15332031 C88.38214213 31.15337602 88.38603566 34.15320806 88.38818359 37.15332031 C88.39461314 39.24638459 88.40134161 41.33944797 88.40835571 43.43251038 C88.42033965 47.82652872 88.42403578 52.22046842 88.42285156 56.61450195 C88.42264921 62.21608951 88.44985907 67.8171649 88.48439598 73.41863155 C88.50676307 77.74695599 88.51068598 82.07515956 88.50963211 86.40353584 C88.51197688 88.46658644 88.52073627 90.52964095 88.53629684 92.5926342 C88.64201795 108.06814537 88.19661427 122.39536902 77.05224609 134.43847656 C74.51168567 136.41861924 71.90091528 137.95221438 69.05224609 139.43847656 C67.56724609 140.42847656 67.56724609 140.42847656 66.05224609 141.43847656 C66.25720703 142.51226562 66.46216797 143.58605469 66.67333984 144.69238281 C66.94555741 146.12856516 67.2176882 147.56476396 67.48974609 149.00097656 C67.62445313 149.70544922 67.75916016 150.40992188 67.89794922 151.13574219 C71.58140275 170.6310938 71.81081094 193.91006649 61.05224609 211.43847656 C51.92738076 224.62194764 36.12414047 229.57621774 21.05224609 232.43847656 C2.73667204 235.741285 -15.40269999 232.84172065 -31.94775391 224.43847656 C-32.17849609 225.01726562 -32.40923828 225.59605469 -32.64697266 226.19238281 C-37.50208092 234.57582802 -49.08263836 238.96187285 -57.94775391 241.43847656 C-83.33832588 247.95118071 -123.50204501 249.46807892 -146.94775391 236.43847656 C-148.30090707 235.50833837 -149.6371233 234.55263174 -150.94775391 233.56347656 C-153.59641247 231.19497775 -153.59641247 231.19497775 -155.83837891 231.62597656 C-159.21083881 232.92499816 -162.0887022 234.92250466 -165.11962891 236.86816406 C-180.38596098 245.34477386 -198.67793439 244.74066221 -215.63525391 244.81347656 C-216.46074738 244.82124115 -217.28624084 244.82900574 -218.13674927 244.83700562 C-239.76828349 244.99710412 -261.44981948 242.43431802 -277.75244141 226.69628906 C-278.14689453 226.28121094 -278.54134766 225.86613281 -278.94775391 225.43847656 C-279.61291016 225.715625 -280.27806641 225.99277344 -280.96337891 226.27832031 C-289.86885829 229.74026714 -299.31937548 233.19647064 -308.94775391 233.43847656 C-309.82044922 233.47714844 -310.69314453 233.51582031 -311.59228516 233.55566406 C-331.08373075 234.02533745 -351.20184661 230.30444607 -366.13525391 216.93847656 C-378.39007821 203.81539547 -380.65736292 185.88545802 -380.18212891 168.65722656 C-379.87270203 161.862465 -378.92497369 155.16488721 -377.94775391 148.43847656 C-377.60347213 145.77305054 -377.27494043 143.10607838 -376.94775391 140.43847656 C-378.71119141 139.69597656 -378.71119141 139.69597656 -380.51025391 138.93847656 C-388.06054637 135.14328531 -393.01975565 128.23761217 -395.94775391 120.43847656 C-398.92566018 110.02283103 -398.25701007 98.95306287 -398.24853516 88.23144531 C-398.25242791 86.17645685 -398.25676377 84.12146919 -398.26152039 82.06648254 C-398.26894815 77.77907692 -398.26871458 73.49175373 -398.26342773 69.2043457 C-398.25761076 63.7155716 -398.27463444 58.22713249 -398.29777241 52.73841381 C-398.312506 48.50303686 -398.31338241 44.26774094 -398.31026268 40.03234291 C-398.31077519 38.00817509 -398.31599976 35.98400266 -398.3260746 33.95985985 C-398.33842637 31.13374312 -398.33165692 28.30828411 -398.32006836 25.48217773 C-398.3277121 24.6514122 -398.33535583 23.82064667 -398.3432312 22.96470642 C-398.29876386 18.05242216 -397.65565128 14.69894383 -394.94775391 10.43847656 C-386.53637826 3.05287843 -373.67550259 3.9007147 -363.06494141 3.25488281 C-361.48343104 3.15410826 -359.90194459 3.05295759 -358.32048035 2.95146179 C-354.04815561 2.68002578 -349.77524892 2.41924173 -345.50203323 2.1622467 C-342.80496937 1.99990608 -340.10803146 1.83558236 -337.41110229 1.67102051 C-298.35698355 -0.70144025 -259.28870456 -2.35835182 -220.18002319 -3.4960556 C-218.02678976 -3.55920548 -215.87361918 -3.62416354 -213.72045898 -3.6897583 C-142.58530425 -5.84512071 -71.02171821 -4.51061037 0 0 Z " transform="translate(402.94775390625,11.5615234375)" style="fill: #1C1C1C;"/><path d="M0 0 C5.6293507 0.16438431 11.25896767 0.31562037 16.88877106 0.46356583 C47.90685547 1.28665111 78.85340769 2.75686361 109.82017517 4.71269989 C112.4647088 4.8795666 115.10934473 5.04469602 117.75402832 5.20916748 C143.37537591 6.80340742 143.37537591 6.80340742 146.52001953 7.88305664 C148.0844325 11.01188258 147.68510142 14.35003014 147.69702148 17.78588867 C147.70359268 18.60238388 147.71016388 19.41887909 147.7169342 20.26011658 C147.73669121 22.97036833 147.7483375 25.68056451 147.75830078 28.39086914 C147.76237631 29.31681759 147.76645184 30.24276604 147.77065086 31.19677353 C147.79152568 36.10131356 147.8058191 41.00582552 147.81518555 45.91040039 C147.82622972 50.96771926 147.8606025 56.02459566 147.90035725 61.0817585 C147.92655803 64.97666214 147.93488065 68.87146115 147.93846703 72.76644516 C147.94332706 74.62989146 147.95492441 76.49333327 147.97350502 78.35669327 C147.99796164 80.97276577 147.99691932 83.58770461 147.98999023 86.20385742 C148.00920532 87.34822014 148.00920532 87.34822014 148.02880859 88.51570129 C147.97587381 94.0297095 146.59338815 98.27719203 143.52001953 102.88305664 C140.77001953 105.38305664 140.77001953 105.38305664 138.52001953 106.88305664 C137.93994141 105.82086914 137.35986328 104.75868164 136.76220703 103.66430664 C128.48173729 88.62717274 120.84244855 77.10753861 104.33251953 70.63305664 C91.8350718 68.17454233 80.63768855 70.19235435 69.95751953 77.05102539 C58.05455473 85.99732426 51.96689982 99.87339709 45.52001953 112.88305664 C43.32621627 110.8360302 41.80420328 108.88068423 40.35595703 106.25805664 C39.96085937 105.55664551 39.56576172 104.85523438 39.15869141 104.13256836 C38.74167969 103.39022949 38.32466797 102.64789063 37.89501953 101.88305664 C28.08743612 84.91363981 16.672085 73.9468065 -2.66748047 68.57055664 C-18.04377288 65.73954251 -33.98433165 68.14574954 -47.40185547 76.39086914 C-61.26231902 86.34330726 -67.84124422 100.10790467 -75.47998047 114.88305664 C-78.20453235 112.15850476 -79.51907885 108.87723624 -81.16748047 105.44555664 C-89.40794947 88.72676875 -98.5280344 76.83310739 -116.72998047 70.57055664 C-132.10623904 65.64599815 -148.38474281 66.8138421 -162.91748047 73.75805664 C-167.27778448 76.06204819 -170.81888682 78.60734127 -174.47998047 81.88305664 C-175.13998047 81.88305664 -175.79998047 81.88305664 -176.47998047 81.88305664 C-176.73650391 82.44508789 -176.99302734 83.00711914 -177.25732422 83.58618164 C-178.62927177 86.16351443 -180.26295946 88.31788184 -182.04248047 90.63305664 C-187.23013294 97.64828576 -191.3284376 105.22384444 -195.47998047 112.88305664 C-196.96700318 110.65252258 -198.17679658 108.60064456 -199.36279297 106.22290039 C-206.50376287 92.14640994 -214.94689134 77.74849257 -230.47998047 71.88305664 C-240.54795087 68.68542539 -252.19998741 68.60242282 -261.93310547 72.98852539 C-264.18477657 74.20010338 -266.3354184 75.49187366 -268.47998047 76.88305664 C-269.34623047 77.43993164 -270.21248047 77.99680664 -271.10498047 78.57055664 C-279.14837322 86.40228116 -284.1426674 97.12823957 -289.47998047 106.88305664 C-294.27292403 103.68776093 -296.52156985 100.1859575 -298.47998047 94.88305664 C-298.98691052 91.93586048 -298.99936379 89.08111003 -298.94995117 86.09619141 C-298.95214157 85.25782242 -298.95433197 84.41945343 -298.95658875 83.55567932 C-298.95888235 80.81152616 -298.93275319 78.0684711 -298.90576172 75.32446289 C-298.90083424 73.41015462 -298.89753769 71.49584153 -298.89579773 69.58152771 C-298.88818145 65.58462963 -298.86768466 61.58809271 -298.83666992 57.59130859 C-298.79690872 52.45741122 -298.77902866 47.32374737 -298.76936054 42.18971348 C-298.75941627 37.29709813 -298.73952185 32.40454022 -298.71826172 27.51196289 C-298.7131681 26.10574267 -298.7131681 26.10574267 -298.70797157 24.67111397 C-298.69645464 22.03539201 -298.67794767 19.39982179 -298.65698242 16.76416016 C-298.65429352 15.97616028 -298.65160461 15.1881604 -298.64883423 14.37628174 C-298.59489281 8.99796898 -298.59489281 8.99796898 -297.47998047 7.88305664 C-294.54350446 7.49901436 -291.62376759 7.17596586 -288.67675781 6.89672852 C-287.7762438 6.80951286 -286.87572979 6.72229721 -285.94792747 6.63243866 C-276.42149185 5.73873667 -266.8851707 5.16999404 -257.33154297 4.66430664 C-255.42063336 4.56046312 -253.5097296 4.45651197 -251.59883118 4.35246277 C-245.43470134 4.01977451 -239.26991033 3.70052041 -233.10498047 3.38305664 C-231.51835539 3.30071463 -231.51835539 3.30071463 -229.89967728 3.21670914 C-198.08106718 1.56743517 -166.27084883 0.29051452 -134.41748047 -0.42944336 C-133.14394085 -0.45909683 -133.14394085 -0.45909683 -131.84467316 -0.48934937 C-87.87640935 -1.51279135 -43.96053245 -1.28457955 0 0 Z " transform="translate(323.47998046875,28.116943359375)" style="fill: #FEFEFE;"/><path d="M0 0 C4.38766096 3.68026256 8.26262938 7.92240484 12.1640625 12.10546875 C12.65745117 12.63309814 13.15083984 13.16072754 13.65917969 13.7043457 C17.1640625 17.55091118 17.1640625 17.55091118 17.1640625 19.79296875 C17.8240625 19.79296875 18.4840625 19.79296875 19.1640625 19.79296875 C20.671875 21.25390625 20.671875 21.25390625 22.2890625 23.16796875 C22.82789063 23.79445313 23.36671875 24.4209375 23.921875 25.06640625 C25.1640625 26.79296875 25.1640625 26.79296875 25.1640625 28.79296875 C26.6490625 29.28796875 26.6490625 29.28796875 28.1640625 29.79296875 C29.57877853 31.38705573 30.92330349 33.0440374 32.2265625 34.73046875 C36.15323088 39.65955491 40.34444831 44.08038771 44.84765625 48.48046875 C46.79065391 50.42018985 48.58443629 52.38341872 50.3515625 54.48046875 C54.60492256 59.47354361 59.33359416 64.01072166 64.01049805 68.60229492 C64.64511963 69.2285376 65.27974121 69.85478027 65.93359375 70.5 C66.50698486 71.06178955 67.08037598 71.6235791 67.67114258 72.20239258 C71.19098004 75.95247288 71.60041857 78.46896022 71.48046875 83.37890625 C70.78229907 88.70568233 68.44996058 92.5697974 64.6015625 96.23046875 C60.40763944 98.91888097 57.07284182 99.12576735 52.1640625 98.79296875 C46.64971394 96.61215293 42.92301069 93.09000119 38.7265625 89.04296875 C38.09685547 88.44742188 37.46714844 87.851875 36.81835938 87.23828125 C34.92061092 85.43610286 33.03907926 83.61877183 31.1640625 81.79296875 C30.5457959 81.19154053 29.9275293 80.5901123 29.29052734 79.97045898 C25.85521275 76.58635577 22.6727383 73.1331531 19.6640625 69.35546875 C14.11041899 62.40465618 14.11041899 62.40465618 8.1640625 55.79296875 C7.8340625 55.79296875 7.5040625 55.79296875 7.1640625 55.79296875 C7.16682788 56.48558021 7.16959326 57.17819166 7.17244244 57.89179134 C7.23878585 74.76892583 7.28838366 91.64601884 7.31949902 108.52325344 C7.33494732 116.685065 7.35599775 124.84678935 7.39038086 133.00854492 C7.42034575 140.12492736 7.4396523 147.24124662 7.44632798 154.35769039 C7.45022828 158.12345744 7.45935166 161.88904378 7.48125267 165.65475273 C7.50173009 169.20470306 7.50787379 172.75439952 7.50338554 176.30440331 C7.50459458 178.21711859 7.52067753 180.12980671 7.537323 182.04244995 C7.48363675 197.10035983 7.48363675 197.10035983 2.71202374 202.40817928 C-1.81809075 206.30349492 -4.80294851 207.09658236 -10.5859375 207.00390625 C-13.74840921 206.70742453 -15.42749579 205.85734736 -17.8359375 203.79296875 C-21.48300689 199.03151704 -22.96748791 195.45992006 -22.94946289 189.53866577 C-22.94935715 188.27417099 -22.94935715 188.27417099 -22.94924927 186.98413086 C-22.94149979 185.60825806 -22.94149979 185.60825806 -22.93359375 184.20458984 C-22.93140335 182.74480209 -22.93140335 182.74480209 -22.9291687 181.25552368 C-22.92536127 179.1384671 -22.91924319 177.02141371 -22.91110229 174.90436935 C-22.8982918 171.52800615 -22.89180841 168.15168253 -22.88696289 164.77529907 C-22.87361121 156.36869285 -22.84970775 147.96212304 -22.82556152 139.55554199 C-22.80557944 132.48068053 -22.79002989 125.40583448 -22.77999878 118.33095169 C-22.77365051 115.05144733 -22.76113273 111.77200748 -22.74829102 108.49252319 C-22.72120333 97.49681729 -22.87510141 86.52268865 -23.27734375 75.53369141 C-23.31633286 74.43258215 -23.35532196 73.33147289 -23.39549255 72.19699669 C-23.45797935 70.65637282 -23.45797935 70.65637282 -23.52172852 69.08462524 C-23.55798843 68.18161493 -23.59424835 67.27860462 -23.63160706 66.34823036 C-23.83815745 63.76520702 -24.27614036 61.32096246 -24.8359375 58.79296875 C-26.02690501 59.95609546 -27.21346454 61.12373547 -28.3984375 62.29296875 C-29.05972656 62.94265625 -29.72101563 63.59234375 -30.40234375 64.26171875 C-32.29863322 66.23410331 -34.07848113 68.22510848 -35.85546875 70.30078125 C-40.46023529 75.59833309 -45.39150251 80.57069052 -50.34326172 85.54052734 C-51.97177062 87.17886726 -53.58930404 88.8275843 -55.20703125 90.4765625 C-56.25194608 91.52799817 -57.2974965 92.57880265 -58.34375 93.62890625 C-58.8209549 94.11845795 -59.29815979 94.60800964 -59.78982544 95.11239624 C-62.60390343 97.90801557 -64.9968654 99.72339593 -68.8359375 100.79296875 C-74.72674922 100.60595885 -78.21124503 99.68191469 -82.8359375 95.79296875 C-86.91252481 90.39424501 -88.29522185 86.56741288 -87.8359375 79.79296875 C-85.71494877 74.44410609 -82.49474616 71.06763788 -78.4453125 67.14453125 C-77.82247375 66.52830902 -77.19963501 65.91208679 -76.55792236 65.27719116 C-74.57428243 63.31683601 -72.58075955 61.36693837 -70.5859375 59.41796875 C-67.97278748 56.85147071 -65.3638955 54.28070422 -62.7578125 51.70703125 C-62.13520538 51.09278793 -61.51259827 50.47854462 -60.87112427 49.84568787 C-56.64952954 45.65897087 -52.67139098 41.33667359 -48.8359375 36.79296875 C-47.06287307 34.83767269 -45.26009026 32.91199161 -43.4609375 30.98046875 C-39.18320353 26.34992442 -35.13370509 21.5815853 -31.171875 16.67578125 C-28.46480781 13.33495252 -25.72353717 10.02542539 -22.9609375 6.73046875 C-22.49623047 6.16980713 -22.03152344 5.60914551 -21.55273438 5.03149414 C-16.10448289 -1.44678 -7.95884957 -5.23252025 0 0 Z " transform="translate(255.8359375,298.20703125)" style="fill: #1D1D1D;"/><path d="M0 0 C18.13901109 17.81562516 24.61738521 42.23919548 24.98828125 67.0546875 C25.00566422 69.46992085 25.00971866 71.88451853 25.00317383 74.29980469 C24.99997667 76.76801316 25.02370849 79.23506038 25.04882812 81.703125 C25.0510986 83.29947768 25.05180579 84.89583353 25.05078125 86.4921875 C25.059991 87.21630829 25.06920074 87.94042908 25.07868958 88.68649292 C25.0208425 95.14076714 23.6295395 100.62632268 19.3125 105.625 C3.69781454 117.04756547 -25.08702062 115.67360846 -43.2265625 113.33984375 C-54.9926096 111.46150451 -67.84172603 108.28701635 -75.25 98.25 C-83.26854675 80.32618963 -77.13086264 48.47139622 -70.49169922 30.67480469 C-64.58959459 15.57283042 -56.70748137 1.23948894 -41.703125 -6.46484375 C-27.35765515 -12.57253622 -11.9667368 -10.27298329 0 0 Z " transform="translate(213.3125,123.125)" style="fill: #FEFEFE;"/><path d="M0 0 C17.29272658 12.60735325 27.03109843 32.53651409 30.375 53.375 C31.87767562 64.24176686 32.57573918 75.15961466 32.75 86.125 C32.77602295 87.01695068 32.8020459 87.90890137 32.82885742 88.82788086 C32.84812647 95.88766114 31.42064278 102.2087377 26.40234375 107.42578125 C4.36947928 120.72786578 -24.90275291 121.38702731 -49.625 116.375 C-56.84117699 114.41011325 -62.95365969 112.19120044 -67.375 105.875 C-69.69249724 101.24000553 -69.79612947 96.93196738 -69.828125 91.8125 C-69.83513931 91.07283493 -69.84215363 90.33316986 -69.84938049 89.5710907 C-69.8669286 87.17233236 -69.87324009 84.77382032 -69.875 82.375 C-69.87567474 81.55987946 -69.87634949 80.74475891 -69.87704468 79.90493774 C-69.84126152 52.77227246 -66.07873492 26.06806552 -46.625 5.375 C-34.1389506 -6.52014583 -14.74078001 -9.27741399 0 0 Z " transform="translate(327.625,118.625)" style="fill: #FEFEFE;"/><path d="M0 0 C13.52853814 7.765925 21.69938083 22.18089473 25.86474609 36.77783203 C29.37981561 50.10272995 31.40723276 62.30005453 30.88671875 76.1015625 C30.84611328 77.78185547 30.84611328 77.78185547 30.8046875 79.49609375 C30.47288162 88.66892072 29.59553395 97.95744983 22.89453125 104.8203125 C14.31284448 111.68566192 1.05874402 109.80339794 -9.23828125 108.9453125 C-19.3165377 107.55151108 -31.24667495 104.49278846 -37.86328125 96.2265625 C-44.55165679 86.04158313 -45.29208569 75.09476271 -44.86328125 63.2265625 C-44.83363281 61.91429687 -44.80398437 60.60203125 -44.7734375 59.25 C-44.10322303 38.25237487 -38.14923723 19.87987405 -23.37890625 4.58203125 C-16.38098808 -1.97036729 -9.14849248 -3.846321 0 0 Z " transform="translate(86.86328125,117.7734375)" style="fill: #FEFEFE;"/><path d="M0 0 C3.40760891 2.63574383 5.91679559 5.39107171 8.53515625 8.78515625 C9.25070679 9.71158936 9.25070679 9.71158936 9.98071289 10.65673828 C24.33674292 29.82256409 27.14950544 55.07463861 24.34765625 78.34765625 C23.37451411 83.75992621 21.642496 88.51674103 19.03515625 93.34765625 C18.70515625 94.00765625 18.37515625 94.66765625 18.03515625 95.34765625 C17.37515625 95.34765625 16.71515625 95.34765625 16.03515625 95.34765625 C15.54015625 96.83265625 15.54015625 96.83265625 15.03515625 98.34765625 C1.03021965 107.61408047 -16.4528354 110.17249025 -32.96484375 108.34765625 C-39.46437247 106.82995627 -43.27686508 103.8237458 -46.96484375 98.34765625 C-56.18442863 80.18165937 -50.60157105 52.11360997 -44.80078125 33.640625 C-39.96360531 20.48662719 -32.94306711 6.11890322 -19.96484375 -0.65234375 C-13.26085955 -3.35972198 -6.37411412 -3.5523719 0 0 Z " transform="translate(428.96484375,118.65234375)" style="fill: #FEFEFE;"/><path d="M0 0 C-0.33 0.99 -0.66 1.98 -1 3 C-1.99 2.67 -2.98 2.34 -4 2 C-4.33 2.66 -4.66 3.32 -5 4 C-1.21472479 3.48847632 0.44108688 2.79154158 3 0 C3.99 -0.33 4.98 -0.66 6 -1 C6 -0.01 6 0.98 6 2 C8.475 2.495 8.475 2.495 11 3 C11 3.33 11 3.66 11 4 C0.7797525 5.8358169 -9.07174038 6.28581717 -19.42480469 6.20581055 C-21.89268203 6.18736786 -24.36018531 6.18530301 -26.828125 6.18554688 C-28.42448237 6.18063584 -30.02083724 6.17480933 -31.6171875 6.16796875 C-32.70336868 6.16629951 -32.70336868 6.16629951 -33.81149292 6.16459656 C-38.61410657 6.12050875 -43.24326303 5.66984532 -48 5 C-48 4.67 -48 4.34 -48 4 C-34.47 4 -20.94 4 -7 4 C-7.495 2.515 -7.495 2.515 -8 1 C-2.25 -1.125 -2.25 -1.125 0 0 Z " transform="translate(328,250)" style="fill: #0C0C0C;"/><path d="M0 0 C0 0.33 0 0.66 0 1 C2.79173055 1.02690104 5.58320348 1.04679053 8.375 1.0625 C9.56609375 1.07506836 9.56609375 1.07506836 10.78125 1.08789062 C15.02392222 1.23040151 15.02392222 1.23040151 19 0 C21.04498425 0.08780403 23.08744948 0.24241538 25.125 0.4375 C26.22070312 0.53933594 27.31640625 0.64117188 28.4453125 0.74609375 C29.70988281 0.87177734 29.70988281 0.87177734 31 1 C31 1.99 31 2.98 31 4 C21.02751531 4.06999599 11.09137389 3.86188011 1.125 3.5 C-0.25650264 3.45160031 -1.63801306 3.40342227 -3.01953125 3.35546875 C-6.34643681 3.23914338 -9.67324796 3.12062283 -13 3 C-13 2.67 -13 2.34 -13 2 C-15.97 1.505 -15.97 1.505 -19 1 C-19 0.67 -19 0.34 -19 0 C-16.20865148 -0.19425873 -13.41716313 -0.38069517 -10.625 -0.5625 C-9.8309375 -0.61857422 -9.036875 -0.67464844 -8.21875 -0.73242188 C-2.2265625 -1.11328125 -2.2265625 -1.11328125 0 0 Z " transform="translate(332,26)" style="fill: #282828;"/><path d="M0 0 C0.33 0 0.66 0 1 0 C1.00808685 0.7553302 1.01617371 1.5106604 1.02450562 2.28887939 C1.10247651 9.41039921 1.18977452 16.53171487 1.28752708 23.65298843 C1.3374532 27.31403063 1.38378339 30.97504449 1.421875 34.63623047 C1.45877463 38.17009786 1.50514695 41.70372604 1.55806351 45.23738861 C1.58558963 47.24031257 1.60332811 49.24336327 1.62094116 51.24639893 C1.64081085 52.46736267 1.66068054 53.68832642 1.68115234 54.94628906 C1.69447601 56.02106506 1.70779968 57.09584106 1.7215271 58.20318604 C1.99695932 60.96946125 2.57465628 62.64160315 4 65 C3.01 65.99 3.01 65.99 2 67 C-1.83140017 60.24359947 -1.29680271 53.79583305 -1.07421875 46.19140625 C-1.04614416 44.85622412 -1.01945824 43.52101214 -0.99409485 42.18577576 C-0.92403329 38.69197168 -0.83525724 35.19889092 -0.74243164 31.70562744 C-0.65085395 28.13277456 -0.57718187 24.559556 -0.50195312 20.98632812 C-0.35204993 13.99042746 -0.18235096 6.99512812 0 0 Z " transform="translate(234,432)" style="fill: #060606;"/><path d="M0 0 C3.89581756 -0.02911003 7.791607 -0.04683587 11.6875 -0.0625 C12.79029297 -0.07087891 13.89308594 -0.07925781 15.02929688 -0.08789062 C16.6293457 -0.09272461 16.6293457 -0.09272461 18.26171875 -0.09765625 C19.24100342 -0.10289307 20.22028809 -0.10812988 21.22924805 -0.11352539 C23.92469572 -0.00308543 26.37545639 0.39465834 29 1 C28.67 1.66 28.34 2.32 28 3 C28.99 3 29.98 3 31 3 C31 3.66 31 4.32 31 5 C27.66914012 5.06531098 24.58200765 5.12181556 21.3125 4.4375 C18.83606542 3.96898535 17.36684269 4.21105244 15 5 C15 4.34 15 3.68 15 3 C14.37351563 3.09539063 13.74703125 3.19078125 13.1015625 3.2890625 C11.87566406 3.45535156 11.87566406 3.45535156 10.625 3.625 C9.81289062 3.74101562 9.00078125 3.85703125 8.1640625 3.9765625 C7.44992188 3.98429688 6.73578125 3.99203125 6 4 C5.34 3.34 4.68 2.68 4 2 C2.68252676 1.30251417 1.35085807 0.63040043 0 0 Z " transform="translate(185,8)" style="fill: #282828;"/><path d="M0 0 C0 3 0 3 -1.9375 5.0625 C-2.38867188 5.4853125 -2.83984375 5.908125 -3.3046875 6.34375 C-6.30544717 9.27536774 -9.03017625 12.46375111 -11.81640625 15.59765625 C-15.83098592 20.01441205 -15.83098592 20.01441205 -18 22 C-18.66 22 -19.32 22 -20 22 C-20 22.66 -20 23.32 -20 24 C-20.763125 24.5775 -21.52625 25.155 -22.3125 25.75 C-25.29694969 28.24860904 -26.47180965 30.46103287 -28 34 C-28.67016602 32.22070312 -28.67016602 32.22070312 -29 30 C-27.96850586 28.26367188 -27.96850586 28.26367188 -26.27734375 26.46875 C-25.62878418 25.77394531 -24.98022461 25.07914062 -24.31201172 24.36328125 C-23.16756592 23.19345703 -23.16756592 23.19345703 -22 22 C-21.12746582 21.10667969 -20.25493164 20.21335937 -19.35595703 19.29296875 C-16.44735304 16.33914938 -13.50634788 13.41862169 -10.5625 10.5 C-9.5342702 9.47679861 -8.50627374 8.45336267 -7.47851562 7.4296875 C-4.98835662 4.95042001 -2.49507167 2.47432462 0 0 Z " transform="translate(198,345)" style="fill: #080808;"/><path d="M0 0 C1.9375 1.5625 1.9375 1.5625 3 3 C2.05125 2.814375 1.1025 2.62875 0.125 2.4375 C-2.89868793 1.71313368 -2.89868793 1.71313368 -5 3 C-5.33 3.66 -5.66 4.32 -6 5 C-6.99 4.67 -7.98 4.34 -9 4 C-9.350625 4.515625 -9.70125 5.03125 -10.0625 5.5625 C-12 7 -12 7 -15.6875 6.6875 C-16.780625 6.460625 -17.87375 6.23375 -19 6 C-13.5446044 -0.28197069 -8.12464092 -2.03116023 0 0 Z " transform="translate(254,297)" style="fill: #131313;"/><path d="M0 0 C15.48360463 12.95566918 15.48360463 12.95566918 16.3359375 17.98046875 C16.44342659 24.05360237 15.05153207 27.75517925 12 33 C11.01 33 10.02 33 9 33 C9.639375 32.21625 10.27875 31.4325 10.9375 30.625 C13.78008655 26.44649822 13.80539194 21.92358402 14 17 C12.68 16.67 11.36 16.34 10 16 C10 15.01 10 14.02 10 13 C9.67 12.01 9.34 11.02 9 10 C8.34 10 7.68 10 7 10 C5.2734375 8.3203125 5.2734375 8.3203125 3.375 6.125 C2.42753906 5.04605469 2.42753906 5.04605469 1.4609375 3.9453125 C0 2 0 2 0 0 Z " transform="translate(311,359)" style="fill: #0C0C0C;"/><path d="M0 0 C-0.33 0.66 -0.66 1.32 -1 2 C-1.67546875 1.96519531 -2.3509375 1.93039063 -3.046875 1.89453125 C-3.93890625 1.86746094 -4.8309375 1.84039063 -5.75 1.8125 C-7.07257812 1.76029297 -7.07257812 1.76029297 -8.421875 1.70703125 C-11.4922845 2.05594142 -12.626061 3.09795963 -15 5 C-17.80135796 5.8495481 -20.0097225 5.90507056 -23 6 C-25 4.5625 -25 4.5625 -26 3 C-25.67 2.34 -25.34 1.68 -25 1 C-17.05449826 -0.87160708 -8.10564794 -0.09726778 0 0 Z " transform="translate(45,17)" style="fill: #252525;"/><path d="M0 0 C0 0.66 0 1.32 0 2 C0.73605469 1.84402344 1.47210938 1.68804687 2.23046875 1.52734375 C3.69419922 1.23537109 3.69419922 1.23537109 5.1875 0.9375 C6.63189453 0.64166016 6.63189453 0.64166016 8.10546875 0.33984375 C11.08069747 -0.0094746 13.11329583 0.28769637 16 1 C17.43540577 1.20291076 18.87291997 1.39170237 20.3125 1.5625 C21.529375 1.706875 22.74625 1.85125 24 2 C24 2.33 24 2.66 24 3 C2.82480315 4.70866142 2.82480315 4.70866142 -7 3 C-2.5 0 -2.5 0 0 0 Z " transform="translate(168,252)" style="fill: #232323;"/><path d="M0 0 C2.04119788 1.61594832 4.04072937 3.2856382 6 5 C6 5.66 6 6.32 6 7 C6.66 7 7.32 7 8 7 C9.5078125 8.4609375 9.5078125 8.4609375 11.125 10.375 C11.93324219 11.31472656 11.93324219 11.31472656 12.7578125 12.2734375 C14 14 14 14 14 16 C12.35 16.33 10.7 16.66 9 17 C9 16.34 9 15.68 9 15 C8.34 14.67 7.68 14.34 7 14 C7.33 13.01 7.66 12.02 8 11 C6.35 9.35 4.7 7.7 3 6 C2.01 6.99 1.02 7.98 0 9 C0 7.68 0 6.36 0 5 C-0.66 4.67 -1.32 4.34 -2 4 C-1.34 2.68 -0.68 1.36 0 0 Z " transform="translate(267,311)" style="fill: #131313;"/><path d="M0 0 C0.33 0 0.66 0 1 0 C1 15.51 1 31.02 1 47 C0.67 47 0.34 47 0 47 C-0.14304107 41.23422753 -0.28544033 35.4684397 -0.42724609 29.70263672 C-0.47557234 27.74136934 -0.52407366 25.78010628 -0.57275391 23.81884766 C-0.64271383 20.9990346 -0.7120432 18.17920663 -0.78125 15.359375 C-0.80312378 14.48319519 -0.82499756 13.60701538 -0.84753418 12.70428467 C-0.86755493 11.88373596 -0.88757568 11.06318726 -0.90820312 10.21777344 C-0.92596802 9.49829529 -0.94373291 8.77881714 -0.96203613 8.03753662 C-1.07185145 2.14370289 -1.07185145 2.14370289 0 0 Z " transform="translate(260,353)" style="fill: #282828;"/><path d="M0 0 C1.2380014 3.57644848 0.74926071 6.33694766 0 10 C1.32 10.66 2.64 11.32 4 12 C2.02 12.66 0.04 13.32 -2 14 C-2.33 17.63 -2.66 21.26 -3 25 C-3.33 25 -3.66 25 -4 25 C-4.50626414 16.69351792 -3.77545952 7.55091904 0 0 Z " transform="translate(28,151)" style="fill: #131313;"/><path d="M0 0 C1.98 0.99 1.98 0.99 4 2 C2.68 1.67 1.36 1.34 0 1 C0 0.67 0 0.34 0 0 Z M4 3 C6.58656673 3.22288501 9.15952778 3.41314385 11.75 3.5625 C12.44738281 3.60568359 13.14476562 3.64886719 13.86328125 3.69335938 C15.57531922 3.79889596 17.28763561 3.8998991 19 4 C19 4.33 19 4.66 19 5 C5.95545355 5.1183055 -6.98818941 4.96639442 -20 4 C-20 3.67 -20 3.34 -20 3 C-16.75052139 2.80261432 -13.50041127 2.6188246 -10.25 2.4375 C-9.32960938 2.38142578 -8.40921875 2.32535156 -7.4609375 2.26757812 C-6.57148438 2.21923828 -5.68203125 2.17089844 -4.765625 2.12109375 C-3.94868164 2.0739624 -3.13173828 2.02683105 -2.29003906 1.97827148 C-0.00287638 1.99997271 1.80387819 2.40045208 4 3 Z " transform="translate(404,27)" style="fill: #080808;"/><path d="M0 0 C8.49197197 1.28124489 15.66532141 7.48320513 21 14 C22.4375 16.9375 22.4375 16.9375 23 19 C21.35 17.35 19.7 15.7 18 14 C17.01 14.495 17.01 14.495 16 15 C15.649375 14.113125 15.29875 13.22625 14.9375 12.3125 C12.62417744 8.35746465 9.99987729 6.17824643 6 4 C5.34 4 4.68 4 4 4 C4 3.34 4 2.68 4 2 C2.68 1.67 1.36 1.34 0 1 C0 0.67 0 0.34 0 0 Z " transform="translate(92,100)" style="fill: #070707;"/><path d="M0 0 C3.96 0 7.92 0 12 0 C12 0.33 12 0.66 12 1 C9.03 1 6.06 1 3 1 C3.33 1.99 3.66 2.98 4 4 C2.02 4.99 2.02 4.99 0 6 C-0.33 5.67 -0.66 5.34 -1 5 C-2.85287502 4.92773498 -4.70833878 4.9161878 -6.5625 4.9375 C-7.57441406 4.94652344 -8.58632812 4.95554687 -9.62890625 4.96484375 C-10.41136719 4.97644531 -11.19382813 4.98804688 -12 5 C-11.67 4.01 -11.34 3.02 -11 2 C-5.555 1.505 -5.555 1.505 0 1 C0 0.67 0 0.34 0 0 Z " transform="translate(153,9)" style="fill: #262626;"/><path d="M0 0 C0.33 0 0.66 0 1 0 C0.98839844 1.00160156 0.97679688 2.00320312 0.96484375 3.03515625 C0.95545602 4.37760228 0.94635688 5.72005036 0.9375 7.0625 C0.92589844 8.37347656 0.91429688 9.68445313 0.90234375 11.03515625 C0.99547665 14.8163519 1.38551274 18.27920707 2 22 C1.01 22.33 0.02 22.66 -1 23 C-1.33 22.01 -1.66 21.02 -2 20 C-2.66 20.33 -3.32 20.66 -4 21 C-3.69255859 19.85724609 -3.69255859 19.85724609 -3.37890625 18.69140625 C-1.74722695 12.43793676 -0.53672183 6.44066194 0 0 Z " transform="translate(117,198)" style="fill: #101010;"/><path d="M0 0 C0.33 0.33 0.66 0.66 1 1 C1.99 0.67 2.98 0.34 4 0 C4.66 0.66 5.32 1.32 6 2 C5.67 2.66 5.34 3.32 5 4 C5.99 4.66 6.98 5.32 8 6 C6.35 6 4.7 6 3 6 C2.67 5.34 2.34 4.68 2 4 C1.01 4.33 0.02 4.66 -1 5 C-3.1875 4.5625 -3.1875 4.5625 -5 4 C-5.33 2.68 -5.66 1.36 -6 0 C-3 -1 -3 -1 0 0 Z " transform="translate(243,498)" style="fill: #232323;"/><path d="M0 0 C0.66 0 1.32 0 2 0 C4.09230769 4.43076923 4.09230769 4.43076923 3.625 7.3125 C3.41875 7.869375 3.2125 8.42625 3 9 C2.01 8.34 1.02 7.68 0 7 C-2.475 8.485 -2.475 8.485 -5 10 C-5 6.65580848 -4.52480606 5.93159679 -2.625 3.3125 C-2.18414062 2.68988281 -1.74328125 2.06726563 -1.2890625 1.42578125 C-0.86367188 0.95527344 -0.43828125 0.48476562 0 0 Z " transform="translate(388,111)" style="fill: #242424;"/><path d="M0 0 C0.33 0.66 0.66 1.32 1 2 C-1.9826906 3.52448631 -4.818202 4.93940067 -8 6 C-7.67 6.66 -7.34 7.32 -7 8 C-7.58007812 7.9278125 -8.16015625 7.855625 -8.7578125 7.78125 C-13.20087574 7.2533613 -17.51631578 6.88503374 -22 7 C-18.35428952 4.9207329 -14.47264855 3.96087904 -10.4375 2.9375 C-5.18432463 1.58958833 -5.18432463 1.58958833 0 0 Z " transform="translate(229,230)" style="fill: #0F0F0F;"/><path d="M0 0 C4.29 0 8.58 0 13 0 C12.34 1.32 11.68 2.64 11 4 C6.33319854 5.23274001 3.30102484 5.21567946 -1 3 C-0.67 2.01 -0.34 1.02 0 0 Z " transform="translate(411,97)" style="fill: #2A2A2A;"/><path d="M0 0 C1 1.66666667 2 3.33333333 3 5 C3.66 5 4.32 5 5 5 C5 5.99 5 6.98 5 8 C5.66 8.33 6.32 8.66 7 9 C6.01 9.33 5.02 9.66 4 10 C3.1028125 9.01 3.1028125 9.01 2.1875 8 C0.12498166 5.6626154 0.12498166 5.6626154 -3 6 C-4.6875 4 -4.6875 4 -6 2 C-2.25 0 -2.25 0 0 0 Z " transform="translate(330,113)" style="fill: #242424;"/><path d="M0 0 C2.25162472 1.04539719 4.14589161 2.11156417 6.125 3.625 C7.88127926 5.19712122 7.88127926 5.19712122 10 5 C12.40453197 7.40453197 12.4511672 8.70700317 13 12 C13.32483418 13.33542939 13.6550855 14.66961551 14 16 C8.90876603 11.06304584 3.94133206 5.9119981 0 0 Z " transform="translate(211,121)" style="fill: #0B0B0B;"/><path d="M0 0 C-0.33 0.99 -0.66 1.98 -1 3 C-3.0625 3.6875 -3.0625 3.6875 -5 4 C-5 4.66 -5 5.32 -5 6 C-7.97 5.505 -7.97 5.505 -11 5 C-11.33 4.01 -11.66 3.02 -12 2 C-7.8803623 0.70756464 -4.33168317 -0.26252625 0 0 Z " transform="translate(427,225)" style="fill: #151515;"/><path d="M0 0 C4.94131296 2.51727264 7.32961797 4.04071909 10 9 C12.38493793 11.08682069 13.96553905 11.98851302 17 13 C16.01 13.66 15.02 14.32 14 15 C9.15020839 10.83951887 4.35555198 6.68221838 0 2 C0 1.34 0 0.68 0 0 Z " transform="translate(284,375)" style="fill: #0D0D0D;"/><path d="M0 0 C0.66 0.33 1.32 0.66 2 1 C1.50371094 1.40089844 1.00742187 1.80179687 0.49609375 2.21484375 C-4.79132024 6.63941599 -8.9561607 11.42708396 -13 17 C-13.33 16.34 -13.66 15.68 -14 15 C-9.79211991 9.24454091 -5.58490476 4.44512827 0 0 Z " transform="translate(394,104)" style="fill: #0B0B0B;"/><path d="M0 0 C2.31 0.33 4.62 0.66 7 1 C7.33 1.99 7.66 2.98 8 4 C5.67313547 5.16343227 4.15278587 5.19895988 1.5625 5.25 C0.38880859 5.28867187 0.38880859 5.28867187 -0.80859375 5.328125 C-3.47931509 4.92823089 -4.31977439 4.05300878 -6 2 C-4.68 2.33 -3.36 2.66 -2 3 C-1.67 2.34 -1.34 1.68 -1 1 C-0.67 1.99 -0.34 2.98 0 4 C0 3.01 0 2.02 0 1 C0 0.67 0 0.34 0 0 Z " transform="translate(246,500)" style="fill: #0D0D0D;"/><path d="M0 0 C1.65 0 3.3 0 5 0 C3.02 0.99 3.02 0.99 1 2 C4.96 2 8.92 2 13 2 C13 2.33 13 2.66 13 3 C11.87851563 3.16435547 11.87851563 3.16435547 10.734375 3.33203125 C9.74953125 3.49058594 8.7646875 3.64914063 7.75 3.8125 C6.77546875 3.96332031 5.8009375 4.11414063 4.796875 4.26953125 C1.87677662 5.03218264 0.25794185 6.03774101 -2 8 C-2.66 7.67 -3.32 7.34 -4 7 C-3.34 6.01 -2.68 5.02 -2 4 C-1.31822584 2.67432801 -0.64808564 1.34246312 0 0 Z " transform="translate(68,113)" style="fill: #0E0E0E;"/><path d="M0 0 C1.32 0 2.64 0 4 0 C3.67 0.66 3.34 1.32 3 2 C2.01 1.34 1.02 0.68 0 0 Z M-0.8125 1.9375 C1.0746875 1.9684375 1.0746875 1.9684375 3 2 C3 2.33 3 2.66 3 3 C5.64 3.33 8.28 3.66 11 4 C11 4.33 11 4.66 11 5 C8.39555652 5.05394705 5.79223002 5.09364469 3.1875 5.125 C2.44951172 5.14175781 1.71152344 5.15851562 0.95117188 5.17578125 C-2.91246426 5.21074628 -4.70903668 5.19397555 -8 3 C-5.24921116 2.08307039 -3.64051087 1.89113917 -0.8125 1.9375 Z " transform="translate(413,26)" style="fill: #262626;"/><path d="M0 0 C6.2049038 0.2757735 10.10160999 1.10640794 15 5 C14.67 5.66 14.34 6.32 14 7 C9.28312744 7 7.29679683 6.29679683 4 3 C4.33 2.67 4.66 2.34 5 2 C3.35 1.67 1.7 1.34 0 1 C0 0.67 0 0.34 0 0 Z " transform="translate(473,17)" style="fill: #121212;"/><path d="M0 0 C0.33 1.32 0.66 2.64 1 4 C0.0925 4.185625 -0.815 4.37125 -1.75 4.5625 C-6.208036 6.53432362 -6.91981256 8.67961071 -9 13 C-9.66 11.68 -10.32 10.36 -11 9 C-9.54782324 7.49403892 -8.08807139 5.99537896 -6.625 4.5 C-5.40683594 3.24703125 -5.40683594 3.24703125 -4.1640625 1.96875 C-2 0 -2 0 0 0 Z " transform="translate(213,331)" style="fill: #0F0F0F;"/><path d="M0 0 C0.33 1.32 0.66 2.64 1 4 C-2.08809695 5.76462683 -3.23312136 6 -7 6 C-7.33 5.01 -7.66 4.02 -8 3 C-5.08235 1.0549 -3.37462715 0.54723683 0 0 Z " transform="translate(357,225)" style="fill: #252525;"/><path d="M0 0 C1.65 0 3.3 0 5 0 C5 1.65 5 3.3 5 5 C1.66666667 5.66666667 -1.66666667 6.33333333 -5 7 C-4.175 6.030625 -3.35 5.06125 -2.5 4.0625 C0.10539608 1.52977999 0.10539608 1.52977999 0 0 Z " transform="translate(395,103)" style="fill: #272727;"/><path d="M0 0 C0.33 0.66 0.66 1.32 1 2 C-0.32 2.33 -1.64 2.66 -3 3 C-3 3.66 -3 4.32 -3 5 C-4.98 5.66 -6.96 6.32 -9 7 C-9.33 6.01 -9.66 5.02 -10 4 C-6.6659053 1.80902348 -3.95820859 0.56545837 0 0 Z " transform="translate(243,241)" style="fill: #242424;"/><path d="M0 0 C2.1875 0.3125 2.1875 0.3125 4 1 C4 3 4 5 4 7 C2.35 6.67 0.7 6.34 -1 6 C-1 5.34 -1 4.68 -1 4 C-1.66 3.67 -2.32 3.34 -3 3 C-1.75 1.4375 -1.75 1.4375 0 0 Z " transform="translate(147,111)" style="fill: #161616;"/><path d="M0 0 C0.99 0 1.98 0 3 0 C3 0.99 3 1.98 3 3 C4.65 3.33 6.3 3.66 8 4 C8 4.33 8 4.66 8 5 C3.03926578 6.32286246 -1.91111512 6.08893197 -7 6 C-4.702779 4.25728062 -2.40133271 2.60088848 0 1 C0 0.67 0 0.34 0 0 Z " transform="translate(331,249)" style="fill: #0D0D0D;"/><path d="M0 0 C2 2 2 2 2.125 4.625 C2.08375 5.40875 2.0425 6.1925 2 7 C-0.70879335 8.35439668 -3.00933268 8.06501451 -6 8 C-6 5 -6 5 -4.6875 3.61328125 C-3.125 2.40885417 -1.5625 1.20442708 0 0 Z " transform="translate(110,223)" style="fill: #282828;"/><path d="M0 0 C2.46278801 1.231394 3.42497687 2.78064923 5 5 C3.35 6.65 1.7 8.3 0 10 C-0.66 8.68 -1.32 7.36 -2 6 C-1.01 5.67 -0.02 5.34 1 5 C0.34 4.67 -0.32 4.34 -1 4 C-0.67 2.68 -0.34 1.36 0 0 Z " transform="translate(154,122)" style="fill: #151515;"/><path d="M0 0 C2.97 0.495 2.97 0.495 6 1 C2.67149253 4.59478807 -0.98971331 7.22364768 -5 10 C-3.33333333 6.66666667 -1.66666667 3.33333333 0 0 Z " transform="translate(403,117)" style="fill: #0D0D0D;"/><path d="M0 0 C1.98 0.495 1.98 0.495 4 1 C4.33 2.32 4.66 3.64 5 5 C4.360625 5.12375 3.72125 5.2475 3.0625 5.375 C2.0415625 5.684375 2.0415625 5.684375 1 6 C0.67 6.66 0.34 7.32 0 8 C-0.98120464 4.94736336 -0.98120464 3.05263664 0 0 Z " transform="translate(458,217)" style="fill: #242424;"/><path d="M0 0 C0.78375 0.185625 1.5675 0.37125 2.375 0.5625 C4.97089775 1.25962266 4.97089775 1.25962266 7 0 C7 0.66 7 1.32 7 2 C7.66 2.33 8.32 2.66 9 3 C6.35261084 4.4606285 5.10551666 5 2 5 C1.34 4.67 0.68 4.34 0 4 C0 2.68 0 1.36 0 0 Z " transform="translate(152,233)" style="fill: #242424;"/><path d="M0 0 C1.65 0.33 3.3 0.66 5 1 C5 1.99 5 2.98 5 4 C4.34 4 3.68 4 3 4 C2.67 4.66 2.34 5.32 2 6 C-0.0625 6.625 -0.0625 6.625 -2 7 C-2.33 6.01 -2.66 5.02 -3 4 C-2.34 4 -1.68 4 -1 4 C-0.67 2.68 -0.34 1.36 0 0 Z " transform="translate(427,224)" style="fill: #262626;"/><path d="M0 0 C0.99 0 1.98 0 3 0 C2.67566492 5.35152885 -0.49704824 8.28280043 -4 12 C-4.66 11.67 -5.32 11.34 -6 11 C-5.505 10.38125 -5.01 9.7625 -4.5 9.125 C-2.80777227 7.16119096 -2.80777227 7.16119096 -3 5 C-2.01 4.67 -1.02 4.34 0 4 C0 2.68 0 1.36 0 0 Z " transform="translate(462,218)" style="fill: #0C0C0C;"/><path d="M0 0 C1.67542976 0.28604898 3.34385343 0.61781233 5 1 C5.33 2.32 5.66 3.64 6 5 C4.68 5.33 3.36 5.66 2 6 C1.87625 5.360625 1.7525 4.72125 1.625 4.0625 C1.315625 3.0415625 1.315625 3.0415625 1 2 C0.34 1.67 -0.32 1.34 -1 1 C-0.67 0.67 -0.34 0.34 0 0 Z " transform="translate(290,377)" style="fill: #232323;"/><path d="M0 0 C0 0.66 0 1.32 0 2 C-0.99 2 -1.98 2 -3 2 C-3 2.66 -3 3.32 -3 4 C-4.98 4.66 -6.96 5.32 -9 6 C-8.67 4.35 -8.34 2.7 -8 1 C-5.10765685 0.17361624 -3.11257569 0 0 0 Z " transform="translate(362,242)" style="fill: #262626;"/><path d="M0 0 C2.97 0.33 5.94 0.66 9 1 C9 2.32 9 3.64 9 5 C8.01 5.33 7.02 5.66 6 6 C3.33456434 4.27530634 1.41716293 2.83432585 0 0 Z " transform="translate(64,224)" style="fill: #121212;"/><path d="M0 0 C0.33 0 0.66 0 1 0 C0.88512252 1.58409994 0.75765492 3.16728963 0.625 4.75 C0.55539062 5.63171875 0.48578125 6.5134375 0.4140625 7.421875 C0.00149945 9.99066382 -0.71160957 11.75841015 -2 14 C-2.66 13.67 -3.32 13.34 -4 13 C-3.67 11.02 -3.34 9.04 -3 7 C-2.34 7 -1.68 7 -1 7 C-0.67 4.69 -0.34 2.38 0 0 Z " transform="translate(381,159)" style="fill: #0F0F0F;"/><path d="M0 0 C1.32 0.33 2.64 0.66 4 1 C4 2.32 4 3.64 4 5 C5.4166747 6.7511573 5.4166747 6.7511573 7 8 C5.68 8.33 4.36 8.66 3 9 C2.690625 8.360625 2.38125 7.72125 2.0625 7.0625 C1.1654837 5.06389179 1.1654837 5.06389179 0 4 C0 2.68 0 1.36 0 0 Z " transform="translate(344,111)" style="fill: #262626;"/><path d="M0 0 C4.56454251 0.54339792 7.9728176 1.79463821 12 4 C10.25 5.125 10.25 5.125 8 6 C5.75 5.125 5.75 5.125 4 4 C4 3.34 4 2.68 4 2 C2.68 1.67 1.36 1.34 0 1 C0 0.67 0 0.34 0 0 Z " transform="translate(325,98)" style="fill: #0E0E0E;"/><path d="M0 0 C0.99 0.99 1.98 1.98 3 3 C2.505 3.4125 2.01 3.825 1.5 4.25 C-0.43386092 6.12202338 -0.43386092 6.12202338 0 10 C-0.66 10 -1.32 10 -2 10 C-2.66 8.35 -3.32 6.7 -4 5 C-2.68 3.35 -1.36 1.7 0 0 Z " transform="translate(172,373)" style="fill: #232323;"/><path d="M0 0 C0.7425 0.185625 1.485 0.37125 2.25 0.5625 C4.94990963 0.99203108 6.44631077 0.85122974 9 0 C9.33 0.66 9.66 1.32 10 2 C8.35 3.32 6.7 4.64 5 6 C3.31237149 4.3545622 1.6459651 2.68711423 0 1 C0 0.67 0 0.34 0 0 Z " transform="translate(132,241)" style="fill: #272727;"/><path d="M0 0 C1.32 0.33 2.64 0.66 4 1 C3.67 2.32 3.34 3.64 3 5 C1.68 5.33 0.36 5.66 -1 6 C-1.66 5.01 -2.32 4.02 -3 3 C-2.34 3 -1.68 3 -1 3 C-0.67 2.01 -0.34 1.02 0 0 Z " transform="translate(43,225)" style="fill: #232323;"/><path d="M0 0 C0.99 0.99 1.98 1.98 3 3 C2.34 4.32 1.68 5.64 1 7 C1 6.34 1 5.68 1 5 C0.34 5 -0.32 5 -1 5 C-0.67 6.32 -0.34 7.64 0 9 C-0.99 8.01 -1.98 7.02 -3 6 C-2.01 4.02 -1.02 2.04 0 0 Z " transform="translate(44,118)" style="fill: #272727;"/><path d="M0 0 C1.9375 0.375 1.9375 0.375 4 1 C5 3 5 3 5 6 C3.35 6 1.7 6 0 6 C0 4 0 2 0 0 Z " transform="translate(225,314)" style="fill: #232323;"/><path d="M0 0 C0.66 0.33 1.32 0.66 2 1 C2.125 3.875 2.125 3.875 2 7 C1.34 7.66 0.68 8.32 0 9 C0 7.68 0 6.36 0 5 C-0.99 5.495 -0.99 5.495 -2 6 C-2 4.35 -2 2.7 -2 1 C-1.34 0.67 -0.68 0.34 0 0 Z " transform="translate(324,375)" style="fill: #232323;"/><path d="M0 0 C-0.57584432 2.38564077 -1.22227595 4.66682784 -2 7 C-2.66 7 -3.32 7 -4 7 C-4.33 4.69 -4.66 2.38 -5 0 C-2 -1 -2 -1 0 0 Z " transform="translate(239,303)" style="fill: #242424;"/><path d="M0 0 C0.66 0 1.32 0 2 0 C2.33 0.99 2.66 1.98 3 3 C6.50294871 4.71567661 6.50294871 4.71567661 10 6 C7.83032311 6.95465783 6.43671207 7.14401212 4.17578125 6.3984375 C2.4315257 5.64129615 0.71372869 4.82390802 -1 4 C-0.67 2.68 -0.34 1.36 0 0 Z " transform="translate(53,234)" style="fill: #0C0C0C;"/><path d="M0 0 C2.49505962 2.49505962 2.35948376 3.67328888 2.625 7.125 C2.69976562 8.03507813 2.77453125 8.94515625 2.8515625 9.8828125 C2.92503906 10.93082031 2.92503906 10.93082031 3 12 C2.34 11.67 1.68 11.34 1 11 C1 10.34 1 9.68 1 9 C0.34 8.67 -0.32 8.34 -1 8 C-0.7525 7.13375 -0.7525 7.13375 -0.5 6.25 C0.14462031 3.73335631 0.14462031 3.73335631 0 0 Z " transform="translate(467,151)" style="fill: #101010;"/><path d="M0 0 C1.485 0.99 1.485 0.99 3 2 C2.67 3.98 2.34 5.96 2 8 C1.01 8 0.02 8 -1 8 C-0.67 7.34 -0.34 6.68 0 6 C-0.165 5.34 -0.33 4.68 -0.5 4 C-1 2 -1 2 0 0 Z " transform="translate(132,135)" style="fill: #262626;"/><path d="M0 0 C3.7952131 1.49097658 5.61042731 3.75700849 8 7 C7.67 7.66 7.34 8.32 7 9 C5.68 7.35 4.36 5.7 3 4 C2.01 4.495 2.01 4.495 1 5 C0.34 3.68 -0.32 2.36 -1 1 C-0.67 0.67 -0.34 0.34 0 0 Z " transform="translate(107,110)" style="fill: #0F0F0F;"/><path d="M0 0 C0.99 0.33 1.98 0.66 3 1 C3 1.66 3 2.32 3 3 C3.66 3.33 4.32 3.66 5 4 C3.68 4.99 2.36 5.98 1 7 C0.34 6.34 -0.32 5.68 -1 5 C-0.625 2.375 -0.625 2.375 0 0 Z " transform="translate(202,376)" style="fill: #262626;"/><path d="M0 0 C2.31 0.33 4.62 0.66 7 1 C4.78065836 4.32901247 3.65316671 4.75023244 0 6 C0.185625 5.38125 0.37125 4.7625 0.5625 4.125 C1.23686176 1.95839822 1.23686176 1.95839822 0 0 Z " transform="translate(159,234)" style="fill: #151515;"/><path d="M0 0 C0.33 0.99 0.66 1.98 1 3 C1.99 3 2.98 3 4 3 C4 3.66 4 4.32 4 5 C2.02 5.99 2.02 5.99 0 7 C-0.66 5.35 -1.32 3.7 -2 2 C-1.34 1.34 -0.68 0.68 0 0 Z " transform="translate(115,217)" style="fill: #232323;"/><path d="M0 0 C0.66 0 1.32 0 2 0 C2.33 1.32 2.66 2.64 3 4 C2.01 4.33 1.02 4.66 0 5 C-0.33 5.99 -0.66 6.98 -1 8 C-2.0625 6.125 -2.0625 6.125 -3 4 C-2.67 3.34 -2.34 2.68 -2 2 C-1.34 2 -0.68 2 0 2 C0 1.34 0 0.68 0 0 Z " transform="translate(44,207)" style="fill: #141414;"/><path d="M0 0 C2 2 2 2 2 5 C3.32 4.67 4.64 4.34 6 4 C5 7 5 7 2 10 C1.34 6.7 0.68 3.4 0 0 Z " transform="translate(113,156)" style="fill: #0D0D0D;"/><path d="M0 0 C2.97 0 5.94 0 9 0 C8.34 1.32 7.68 2.64 7 4 C4.50638429 2.79618552 2.31856917 1.54571278 0 0 Z " transform="translate(467,145)" style="fill: #272727;"/><path d="M0 0 C3.26954202 0.56371414 4.82575883 1.49962266 7 4 C2.25 5.125 2.25 5.125 0 4 C0 2.68 0 1.36 0 0 Z " transform="translate(467,146)" style="fill: #121212;"/><path d="M0 0 C0.66 0.99 1.32 1.98 2 3 C0.68 4.32 -0.64 5.64 -2 7 C-2.33 5.35 -2.66 3.7 -3 2 C-2.01 1.34 -1.02 0.68 0 0 Z " transform="translate(396,125)" style="fill: #171717;"/><path d="M0 0 C0 0.66 0 1.32 0 2 C-0.99 2.495 -0.99 2.495 -2 3 C-2 3.99 -2 4.98 -2 6 C-3.32 4.68 -4.64 3.36 -6 2 C-4.52859548 -0.94280904 -2.94280904 -1.47140452 0 0 Z " transform="translate(212,114)" style="fill: #232323;"/><path d="M0 0 C0.99 0.99 1.98 1.98 3 3 C2.67 3.66 2.34 4.32 2 5 C-0.375 5.1875 -0.375 5.1875 -3 5 C-3.66 4.01 -4.32 3.02 -5 2 C-3.35 1.34 -1.7 0.68 0 0 Z " transform="translate(185,394)" style="fill: #292929;"/><path d="M0 0 C1.10740461 3.32221382 0.97233311 5.64103108 0 9 C-0.66 9.66 -1.32 10.32 -2 11 C-1.85892253 9.54119891 -1.71197585 8.08296449 -1.5625 6.625 C-1.48128906 5.81289062 -1.40007813 5.00078125 -1.31640625 4.1640625 C-1 2 -1 2 0 0 Z " transform="translate(28,151)" style="fill: #0C0C0C;"/><path d="M0 0 C0.66 0.99 1.32 1.98 2 3 C1.071875 3.185625 1.071875 3.185625 0.125 3.375 C-2.19120832 3.87197356 -2.19120832 3.87197356 -4 6 C-4.625 4.125 -4.625 4.125 -5 2 C-3 0 -3 0 0 0 Z " transform="translate(269,114)" style="fill: #272727;"/><path d="M0 0 C3.37462715 0.54723683 5.08235 1.0549 8 3 C7.67 3.66 7.34 4.32 7 5 C4.0625 4.1875 4.0625 4.1875 1 3 C0.67 2.01 0.34 1.02 0 0 Z " transform="translate(368,233)" style="fill: #131313;"/><path d="M0 0 C2.97 0 5.94 0 9 0 C6.77810176 2.22189824 4.91517292 2.92598892 2 4 C1.34 2.68 0.68 1.36 0 0 Z " transform="translate(79,228)" style="fill: #262626;"/><path d="M0 0 C1.65 1.65 3.3 3.3 5 5 C4.01 6.485 4.01 6.485 3 8 C3 7.34 3 6.68 3 6 C1.68 5.67 0.36 5.34 -1 5 C-0.67 4.34 -0.34 3.68 0 3 C0 2.01 0 1.02 0 0 Z " transform="translate(109,113)" style="fill: #2A2A2A;"/><path d="M0 0 C2.31 0.66 4.62 1.32 7 2 C5.1875 3.5625 5.1875 3.5625 3 5 C2.01 4.67 1.02 4.34 0 4 C0 2.68 0 1.36 0 0 Z " transform="translate(152,106)" style="fill: #272727;"/><path d="M0 0 C2.02045442 0.60183749 4.02111039 1.27306096 6 2 C6.33 2.66 6.66 3.32 7 4 C3.25 5.125 3.25 5.125 1 4 C0.375 1.9375 0.375 1.9375 0 0 Z " transform="translate(64,99)" style="fill: #272727;"/><path d="M0 0 C2.97 0.495 2.97 0.495 6 1 C5.01 2.485 5.01 2.485 4 4 C2.68 4 1.36 4 0 4 C0 2.68 0 1.36 0 0 Z " transform="translate(249,298)" style="fill: #252525;"/><path d="M0 0 C1.423125 0.495 1.423125 0.495 2.875 1 C5.77062452 2.10159191 5.77062452 2.10159191 8 2 C8.33 2.99 8.66 3.98 9 5 C3.46153846 4.50769231 3.46153846 4.50769231 1.125 1.9375 C0.75375 1.298125 0.3825 0.65875 0 0 Z " transform="translate(38,228)" style="fill: #0F0F0F;"/><path d="M0 0 C0.8125 1.6875 0.8125 1.6875 1 4 C-1.4375 6.75 -1.4375 6.75 -4 9 C-3.67 6.69 -3.34 4.38 -3 2 C-2.34 2 -1.68 2 -1 2 C-0.67 1.34 -0.34 0.68 0 0 Z " transform="translate(149,134)" style="fill: #252525;"/><path d="M0 0 C0.33 0.66 0.66 1.32 1 2 C0.00390625 3.9453125 0.00390625 3.9453125 -1.4375 6.125 C-1.91058594 6.84945312 -2.38367188 7.57390625 -2.87109375 8.3203125 C-3.24363281 8.87460938 -3.61617188 9.42890625 -4 10 C-4.33 9.34 -4.66 8.68 -5 8 C-3.62292893 4.85240898 -2.43840236 2.43840236 0 0 Z " transform="translate(273,132)" style="fill: #0D0D0D;"/><path d="M0 0 C1.98 0.495 1.98 0.495 4 1 C3.34 2.65 2.68 4.3 2 6 C1.01 5.67 0.02 5.34 -1 5 C-0.67 3.35 -0.34 1.7 0 0 Z " transform="translate(396,121)" style="fill: #262626;"/><path d="M0 0 C2.3431213 0.25561323 4.67843403 0.59270772 7 1 C7.33 1.66 7.66 2.32 8 3 C7.34 3 6.68 3 6 3 C5.67 3.66 5.34 4.32 5 5 C2.5 3.625 2.5 3.625 0 2 C0 1.34 0 0.68 0 0 Z " transform="translate(86,115)" style="fill: #262626;"/></svg>