<?xml version="1.0" encoding="UTF-8"?>
<!-- Generator: visioncortex VTracer -->
<svg id="svg" version="1.1" xmlns="http://www.w3.org/2000/svg" style="display: block;" viewBox="0 0 512 376"><path d="M0 0 C168.96 0 337.92 0 512 0 C512 124.08 512 248.16 512 376 C343.04 376 174.08 376 0 376 C0 251.92 0 127.84 0 0 Z " transform="translate(0,0)" style="fill: #FEFEFE;"/><path d="M0 0 C0.53882813 0.48597656 1.07765625 0.97195313 1.6328125 1.47265625 C0.69589261 9.43647533 -5.89258628 15.87846019 -10.6171875 22.03515625 C-12.05471523 23.91534338 -13.49221441 25.79555234 -14.9296875 27.67578125 C-15.66445313 28.63548828 -16.39921875 29.59519531 -17.15625 30.58398438 C-20.64863795 35.14691881 -24.13376564 39.71537482 -27.6171875 44.28515625 C-28.2865332 45.16308838 -28.95587891 46.04102051 -29.64550781 46.94555664 C-34.05293898 52.73206977 -38.42864246 58.54125683 -42.78344727 64.36743164 C-47.00747711 70.01111181 -51.27858672 75.61836517 -55.5546875 81.22265625 C-62.24830449 89.99838553 -68.92727065 98.78084382 -75.45703125 107.6796875 C-81.74897432 116.25231339 -88.09348414 124.77657366 -94.5546875 133.22265625 C-100.44152381 140.91964405 -106.23270576 148.67504817 -111.93505859 156.50927734 C-119.49078437 166.867809 -127.11917437 177.1725587 -134.83007812 187.41601562 C-138.69221649 192.55362901 -142.50196174 197.72847177 -146.3046875 202.91015625 C-151.92147837 210.55860196 -157.64246556 218.1205327 -163.4296875 225.640625 C-166.44329805 229.55892794 -169.40981864 233.51180076 -172.3671875 237.47265625 C-170.30691337 238.51252434 -168.25601868 239.52121947 -166.140625 240.4453125 C-153.69731435 246.09952043 -144.89643228 255.4268844 -140.0546875 268.16015625 C-134.16924505 284.92249235 -136.78247955 304.78570653 -143.95068359 320.76538086 C-153.9564908 341.40828435 -171.68056394 355.07798922 -193.140625 362.52734375 C-207.19592003 366.64523891 -222.97170824 365.45336808 -236.0546875 358.84765625 C-248.26346057 351.61480233 -256.60091356 341.95499421 -260.8046875 328.34765625 C-264.71750762 312.79756938 -260.27044399 297.607152 -253.3671875 283.47265625 C-250.96105681 279.56903916 -248.26529589 276.02178899 -245.3671875 272.47265625 C-244.573125 271.4775 -243.7790625 270.48234375 -242.9609375 269.45703125 C-235.84380709 260.62994093 -235.84380709 260.62994093 -233.3671875 258.47265625 C-232.7071875 258.47265625 -232.0471875 258.47265625 -231.3671875 258.47265625 C-231.3671875 257.81265625 -231.3671875 257.15265625 -231.3671875 256.47265625 C-229.79432066 255.05827219 -228.15578754 253.71661224 -226.4921875 252.41015625 C-222.751648 249.43386403 -219.19470158 246.40135507 -215.7421875 243.09765625 C-210.77062269 238.54835576 -205.30701515 235.00818049 -199.60693359 231.45361328 C-189.24865491 225.5843417 -189.24865491 225.5843417 -182.3671875 216.47265625 C-182.60141878 212.56880159 -183.18052064 210.75265654 -185.3671875 207.47265625 C-188.99878778 206.47083548 -191.63727213 205.76428573 -195.1796875 207.21484375 C-197.31273427 208.54799798 -199.33218997 209.99357692 -201.3671875 211.47265625 C-225.87673872 228.3791137 -255.31964732 238.68396706 -285.390625 233.75390625 C-301.8694031 230.56238438 -313.78168879 223.41921333 -323.90234375 209.7265625 C-331.72740978 197.68639424 -333.17734124 183.55192139 -330.6796875 169.64453125 C-325.2528125 149.11285418 -310.82242216 133.92787771 -292.8046875 123.26171875 C-281.68012949 117.47189197 -269.71767906 114.07034815 -257.1796875 114.16015625 C-256.35525146 114.1650708 -255.53081543 114.16998535 -254.68139648 114.17504883 C-233.91086174 114.56785789 -216.0436573 123.06889113 -201.3671875 137.47265625 C-200.7278125 138.08753906 -200.0884375 138.70242187 -199.4296875 139.3359375 C-191.32892327 147.78026093 -186.7874671 159.17801812 -184.3671875 170.47265625 C-181.08081434 171.00081025 -181.08081434 171.00081025 -177.3671875 170.47265625 C-175.26068814 168.35348622 -173.88849527 166.62843213 -172.3046875 164.16015625 C-171.35149811 162.77128517 -170.39700915 161.38330534 -169.44140625 159.99609375 C-168.94302246 159.25713867 -168.44463867 158.51818359 -167.93115234 157.75683594 C-165.26178301 153.85820661 -162.43303106 150.07860839 -159.6171875 146.28515625 C-158.4296111 144.6745355 -157.24211233 143.0638575 -156.0546875 141.453125 C-145.58329684 127.29040097 -135.00074405 113.21204082 -124.13671875 99.34765625 C-118.10052345 91.63497583 -112.14840466 83.8788438 -106.3671875 75.97265625 C-100.0609144 67.34842081 -93.54022628 58.90855067 -86.94970703 50.50048828 C-85.04851526 48.06431135 -83.16888293 45.61228331 -81.29345703 43.15625 C-68.48867047 26.39949345 -25.74050461 -16.60814736 0 0 Z " transform="translate(374.3671875,8.52734375)" style="fill: #000000;"/><path d="M0 0 C1.32009741 2.40723646 1.48123965 4.23445801 0.93359375 6.921875 C-4.57028012 19.65729615 -24.81787022 28.80727609 -36.9375 33.9375 C-44.96341125 36.82507135 -53.26148541 37.28675734 -61.70141602 37.90600586 C-62.84266465 37.99158469 -63.98391329 38.07716352 -65.15974522 38.16533566 C-77.75471513 39.09539962 -90.35855833 39.87095166 -102.96484375 40.62890625 C-105.46050477 40.78043304 -107.9561558 40.93212431 -110.45179749 41.08396912 C-115.63063036 41.39864667 -120.80954231 41.71197447 -125.98852539 42.02416992 C-132.57303968 42.42111524 -139.15739836 42.82057422 -145.74170589 43.22093296 C-150.87653097 43.53303643 -156.0114079 43.84427947 -161.14630318 44.15522575 C-163.57280953 44.30217477 -165.99930696 44.44927129 -168.4257946 44.59652901 C-182.26028012 45.43519263 -196.09529766 46.2367652 -209.9375 46.9375 C-208.17715233 43.28781999 -206.00012283 40.08390442 -203.625 36.8125 C-202.98208008 35.91954224 -202.98208008 35.91954224 -202.32617188 35.00854492 C-200.86633868 32.9826381 -199.40208289 30.95997547 -197.9375 28.9375 C-196.18685986 26.51542258 -194.4367242 24.09298146 -192.68676758 21.67041016 C-191.53517048 20.07697908 -190.3826869 18.48418824 -189.22924805 16.89208984 C-188.69984619 16.16070801 -188.17044434 15.42932617 -187.625 14.67578125 C-187.15449219 14.02649658 -186.68398438 13.37721191 -186.19921875 12.70825195 C-185.08134783 11.13938241 -184.00607015 9.54035523 -182.9375 7.9375 C-181.14057922 7.48976135 -181.14057922 7.48976135 -178.9152832 7.38500977 C-178.06616867 7.33792877 -177.21705414 7.29084778 -176.34220886 7.24234009 C-174.92951469 7.18619034 -174.92951469 7.18619034 -173.48828125 7.12890625 C-172.48569778 7.07745453 -171.48311432 7.02600281 -170.45014954 6.97299194 C-167.05062037 6.80181215 -163.65047423 6.65115234 -160.25 6.5 C-157.82529004 6.38167567 -155.40064922 6.26192733 -152.97607422 6.14086914 C-148.31830382 5.91008927 -143.66036466 5.68408336 -139.00204086 5.46484661 C-128.71476459 4.9806903 -118.42958778 4.45868984 -108.14453125 3.9296875 C-104.72412712 3.75403291 -101.30371578 3.57851894 -97.88330078 3.40307617 C-97.03231686 3.35941642 -96.18133293 3.31575666 -95.30456161 3.27077389 C-81.26859213 2.55151134 -67.23163613 1.85169634 -53.19476318 1.15032959 C-49.29990194 0.955694 -45.40507472 0.7603845 -41.51025391 0.56494141 C-36.48720602 0.313068 -31.46408404 0.0627573 -26.44085693 -0.18551636 C-24.757282 -0.26883608 -23.0737281 -0.35258229 -21.39019775 -0.4367981 C-19.16514927 -0.54788121 -16.94001734 -0.65708114 -14.71484375 -0.765625 C-13.53140381 -0.82395508 -12.34796387 -0.88228516 -11.12866211 -0.94238281 C-2.32288021 -1.27383754 -2.32288021 -1.27383754 0 0 Z " transform="translate(449.9375,166.0625)" style="fill: #000000;"/><path d="M0 0 C8.46322476 7.52575986 13.38078291 16.10644444 14.09375 27.49609375 C13.73316437 37.12673488 8.80509904 45.67996797 1.875 52.1875 C-12.58249274 63.67689821 -31.93375027 67.15566082 -49.91015625 65.53125 C-61.72525565 64.1699749 -70.91969016 59.36336448 -78.375 50.0625 C-83.64457612 42.40697691 -85.06929937 35.28728555 -84 26 C-80.87378717 13.90137972 -73.27126766 4.830393 -63 -2 C-42.92715246 -12.67510528 -19.08907515 -13.68539849 0 0 Z " transform="translate(151,158)" style="fill: #FEFEFE;"/><path d="M0 0 C0.92619141 0.61875 0.92619141 0.61875 1.87109375 1.25 C9.29719307 6.87147734 12.47575216 15.21260959 13.77734375 24.22265625 C14.94053267 38.7319075 8.90418616 52.77963119 -0.3359375 63.78125 C-9.22283886 73.26756113 -20.78511104 81.36946851 -34 83 C-41.4621753 83.20913103 -47.76417056 82.19771202 -54 78 C-54.61617187 77.58878906 -55.23234375 77.17757812 -55.8671875 76.75390625 C-61.83225403 72.23530435 -64.67415384 65.97753847 -67 59 C-68.07446901 43.9574338 -65.49375918 31.15342085 -56 19 C-43.45773516 4.60467892 -19.17898612 -13.03030904 0 0 Z " transform="translate(202,270)" style="fill: #FEFEFE;"/><path d="M0 0 C1.12422615 0.29624016 1.12422615 0.29624016 2.27116394 0.59846497 C4.79770235 1.26677801 7.32064447 1.94775646 9.84375 2.62890625 C11.68057804 3.11814198 13.51757931 3.60672767 15.35473633 4.09472656 C20.54228713 5.47590573 25.72636717 6.86973261 30.909729 8.26654053 C34.4723365 9.22603774 38.03564546 10.18289241 41.59912109 11.13916016 C71.04209855 19.04232353 100.46036015 27.03442533 129.86611938 35.07495117 C145.44611686 39.33322896 161.04220088 43.52054474 176.66870117 47.60473633 C188.86525973 50.79308044 201.04424777 54.04488706 213.21875 57.31640625 C214.13702576 57.56314087 215.05530151 57.80987549 216.00140381 58.06408691 C221.11586158 59.43858949 226.2299644 60.81440512 231.34375 62.19140625 C229.03238878 68.29357974 225.22419118 72.99662209 221.34375 78.19140625 C206.46955351 74.88182661 191.78681588 70.87085651 177.08574295 66.87447357 C173.58437078 65.92338664 170.08207601 64.97570986 166.57983398 64.02783203 C161.58007231 62.67443009 156.58051432 61.32028176 151.58126545 59.9649868 C140.40517238 56.93530419 129.2252055 53.92007582 118.04360962 50.9107666 C114.89316759 50.06288537 111.7428468 49.21455472 108.5925293 48.36621094 C96.27071105 45.04916604 83.94559439 41.74459641 71.61816406 38.44847107 C62.22850362 35.93772255 52.84050062 33.42083658 43.45336914 30.90065002 C36.79335204 29.11348283 30.13080149 27.3361987 23.46603394 25.5668335 C19.36374522 24.47576376 15.26364111 23.37665567 11.1640625 22.27545166 C9.26672725 21.76765578 7.36847033 21.26328919 5.46923828 20.76263428 C2.87149301 20.07740364 0.27729889 19.38003045 -2.31640625 18.6796875 C-3.06475235 18.48551743 -3.81309845 18.29134735 -4.5841217 18.09129333 C-10.14945329 16.56784275 -17.37028289 14.217003 -20.65625 9.19140625 C-21.09375 6.25390625 -21.09375 6.25390625 -20.65625 3.19140625 C-14.93769203 -3.86148191 -8.0240082 -2.19408279 0 0 Z " transform="translate(21.65625,13.80859375)" style="fill: #010101;"/><path d="M0 0 C7.86343138 1.44853234 15.55993682 3.37715617 23.28515625 5.4296875 C24.59611166 5.7759382 25.90711782 6.12199676 27.21817017 6.46788025 C30.76168855 7.40387509 34.30402657 8.34426269 37.846035 9.28595352 C40.0725674 9.87767551 42.29938441 10.46831528 44.52627563 11.0586853 C68.14676535 17.32273766 91.73491457 23.70353876 115.30363083 30.15952301 C117.66767985 30.80707097 120.03185205 31.45416788 122.39602661 32.10125732 C130.79802008 34.40215916 139.19498447 36.72012151 147.58685303 39.05767822 C150.60889438 39.89202125 153.63566549 40.70373504 156.66650391 41.50537109 C158.20096778 41.9237085 159.7353241 42.3424408 161.26953125 42.76171875 C163.09834839 43.24644653 163.09834839 43.24644653 164.96411133 43.7409668 C168.57080834 45.23672365 170.51754087 47.00906812 173 50 C173.71235686 53.7992366 173.31263988 55.43724821 171.4375 58.8125 C168.26040619 61.66373804 166.2200411 61.68647259 162 62 C158.88380432 61.51092529 158.88380432 61.51092529 155.68969727 60.63574219 C154.47647797 60.3103949 153.26325867 59.98504761 152.01327515 59.64984131 C150.69757579 59.28245936 149.38195503 58.91479581 148.06640625 58.546875 C146.68371608 58.17073324 145.30070239 57.79577898 143.91738892 57.42193604 C140.22525311 56.42059095 136.537822 55.40286013 132.8510704 54.38189697 C129.02033794 53.32419377 125.18537531 52.28205923 121.35083008 51.23828125 C113.20118687 49.01698772 105.05726033 46.77527002 96.91471863 44.52810669 C94.1249104 43.75863782 91.33445937 42.99151405 88.54394531 42.22460938 C74.90819294 38.47714151 74.90819294 38.47714151 68.53149414 36.7109375 C57.37939884 33.62608921 46.19592771 30.67132301 35 27.75 C-3.69494518 17.65252741 -3.69494518 17.65252741 -9 15 C-7.61219205 11.10993227 -5.7847773 8.03441292 -3.375 4.6875 C-2.74335938 3.80449219 -2.11171875 2.92148438 -1.4609375 2.01171875 C-0.97882813 1.34785156 -0.49671875 0.68398437 0 0 Z " transform="translate(333,99)" style="fill: #010101;"/><path d="M0 0 C3.64737744 2.94894346 5.75174863 5.13811474 6.375 9.8125 C6 13 6 13 4.0625 15.9375 C0.30728846 18.46652001 -1.56574938 18.42463946 -5.91015625 17.63671875 C-8.96559617 16.70580902 -10.29025496 15.70709631 -12 13 C-13.08942951 9.00542512 -13.42137647 6.92301513 -11.6875 3.125 C-8.61831897 -0.73989463 -4.66384255 -0.82197991 0 0 Z " transform="translate(220,185)" style="fill: #FCFCFC;"/></svg>