<?xml version="1.0" encoding="UTF-8"?>
<!-- Generator: visioncortex VTracer -->
<svg id="svg" version="1.1" xmlns="http://www.w3.org/2000/svg" viewBox="0 0 522 493" style="display: block;"><path d="M0 0 C1.64408193 -0.00462137 3.28815972 -0.01098251 4.93222904 -0.01890898 C9.40313104 -0.03545585 13.87368721 -0.02742343 18.34458971 -0.0149641 C23.18449156 -0.00585531 28.02433694 -0.01991204 32.86422729 -0.03088379 C42.32706076 -0.04861177 51.78976687 -0.04485462 61.2526052 -0.03323323 C68.94755833 -0.02417658 76.64247592 -0.02298453 84.33743286 -0.02732849 C85.43523923 -0.02794142 86.5330456 -0.02855436 87.66411883 -0.02918586 C89.89472859 -0.03046484 92.12533835 -0.0317617 94.35594809 -0.03307623 C115.24158312 -0.04446527 136.12714777 -0.03139466 157.01277125 -0.00987476 C174.90918416 0.00799468 192.80549326 0.0048901 210.7019043 -0.0135498 C231.51600953 -0.03498616 252.33005317 -0.04336679 273.1441679 -0.03110075 C275.36628404 -0.02982664 277.5884002 -0.02856915 279.81051636 -0.02732849 C281.45023339 -0.02640284 281.45023339 -0.02640284 283.12307602 -0.02545848 C290.803186 -0.02201388 298.4832567 -0.0278147 306.1633606 -0.0372467 C315.53087034 -0.04849883 324.89824611 -0.04535929 334.26574063 -0.02412373 C339.03943705 -0.01365646 343.81291062 -0.0094172 348.58660507 -0.02272034 C352.96629321 -0.03474031 357.34555433 -0.02792551 361.72520435 -0.00681013 C363.29969328 -0.00238437 364.87421917 -0.00451825 366.44868386 -0.01431328 C386.64494479 -0.13020581 405.08334242 5.03520901 419.99536133 19.23327637 C435.96575499 35.21187119 442.14984274 54.80270417 442.21704221 76.91914803 C442.21626216 78.30409536 442.21538341 79.68904265 442.2144165 81.07398987 C442.21700315 82.55925763 442.22001714 84.0445247 442.2234199 85.52979082 C442.23145802 89.59872848 442.23327769 93.66764847 442.23401737 97.73659313 C442.2358735 102.13010494 442.24342364 106.52360771 442.25015259 110.91711426 C442.26371378 120.51857989 442.26975718 130.12004133 442.27416325 139.72151494 C442.27692943 145.7212039 442.28116747 151.72089127 442.28566742 157.72057915 C442.29785722 174.34487462 442.30815709 190.96916882 442.31154251 207.59346867 C442.31176208 208.65672193 442.31198164 209.71997519 442.31220786 210.81544825 C442.31242614 211.88118778 442.31264442 212.94692732 442.31286931 214.04496199 C442.31331277 216.20441314 442.31375933 218.36386428 442.31420898 220.52331543 C442.31443041 221.59446869 442.31465184 222.66562196 442.31487998 223.76923441 C442.31882634 241.11800203 442.33627669 258.4667276 442.35956851 275.81547899 C442.38331047 293.644012 442.39574566 311.47252394 442.39691043 329.30107301 C442.39782559 339.30433121 442.40353785 349.30753461 442.42173004 359.31077766 C442.43716946 367.83014328 442.44222888 376.34943716 442.43399194 384.86881412 C442.43009901 389.21092841 442.43094829 393.55289842 442.44504929 397.89499474 C442.45787001 401.87950482 442.45651986 405.86376342 442.44445857 409.84827357 C442.44251561 411.28032658 442.44551422 412.71239792 442.45430294 414.14442528 C442.58056393 436.13099209 436.61750697 455.96586359 421.34350586 472.32043457 C403.96297765 489.07275092 382.99328827 494.06008111 359.51538086 493.80090332 C357.9898267 493.79528836 356.46426702 493.79102729 354.93870544 493.78804016 C350.97838653 493.77674051 347.01841273 493.74740732 343.05822754 493.71392822 C338.99516464 493.68290075 334.93204442 493.66946598 330.86889648 493.65441895 C322.9370998 493.62251854 315.00558047 493.57150967 307.07397461 493.50793457 C307.05084957 484.13757519 307.0330587 474.76722556 307.02216244 465.39684391 C307.01693396 461.04624998 307.00983696 456.6956755 306.99853516 452.34509277 C306.98770502 448.15003199 306.98169751 443.95498998 306.97909737 439.75991631 C306.97724335 438.15586489 306.97362317 436.55181455 306.96824455 434.94777107 C306.96103242 432.70876942 306.95998374 430.46984628 306.96044922 428.23083496 C306.95822861 426.95398331 306.956008 425.67713165 306.95372009 424.36158752 C307.07397461 421.50793457 307.07397461 421.50793457 308.07397461 420.50793457 C309.48967584 420.42141846 310.90956961 420.40088553 312.32788086 420.41027832 C313.48139038 420.41402466 313.48139038 420.41402466 314.65820312 420.41784668 C316.13244751 420.43150269 316.13244751 420.43150269 317.63647461 420.44543457 C322.30803711 420.47637207 322.30803711 420.47637207 327.07397461 420.50793457 C326.74397461 414.23793457 326.41397461 407.96793457 326.07397461 401.50793457 C320.19514458 401.54751226 320.19514458 401.54751226 314.31640625 401.59802246 C313.22380493 401.6017688 313.22380493 401.6017688 312.10913086 401.60559082 C310.98583374 401.61344604 310.98583374 401.61344604 309.83984375 401.62145996 C308.07397461 401.50793457 308.07397461 401.50793457 307.07397461 400.50793457 C307.03333629 398.84176342 307.03125361 397.17405362 307.07397461 395.50793457 C309.37051161 394.35966607 310.65710628 394.39232282 313.20678711 394.41027832 C313.93269043 394.41277588 314.65859375 394.41527344 315.40649414 394.41784668 C316.78877197 394.43150269 316.78877197 394.43150269 318.19897461 394.44543457 C321.12772461 394.46605957 324.05647461 394.48668457 327.07397461 394.50793457 C326.74397461 387.57793457 326.41397461 380.64793457 326.07397461 373.50793457 C319.80397461 373.50793457 313.53397461 373.50793457 307.07397461 373.50793457 C307.07397461 371.52793457 307.07397461 369.54793457 307.07397461 367.50793457 C313.67397461 367.50793457 320.27397461 367.50793457 327.07397461 367.50793457 C326.74397461 360.24793457 326.41397461 352.98793457 326.07397461 345.50793457 C320.13397461 345.50793457 314.19397461 345.50793457 308.07397461 345.50793457 C307.41397461 344.18793457 306.75397461 342.86793457 306.07397461 341.50793457 C306.73397461 340.51793457 307.39397461 339.52793457 308.07397461 338.50793457 C310.98727539 338.25923816 313.66817756 338.18159179 316.57397461 338.25793457 C317.35901367 338.26309082 318.14405273 338.26824707 318.95288086 338.27355957 C324.76472637 338.35331045 324.76472637 338.35331045 327.07397461 339.50793457 C326.74397461 333.89793457 326.41397461 328.28793457 326.07397461 322.50793457 C324.93573242 322.51953613 323.79749023 322.5311377 322.62475586 322.54309082 C301.10222512 322.68051893 279.58838529 322.02196399 258.07397461 321.50793457 C258.07032898 322.56615921 258.06668335 323.62438385 258.06292725 324.7146759 C258.02602124 334.67675595 257.96829704 344.63852562 257.89007187 354.60036945 C257.85052543 359.72215895 257.81837222 364.84377468 257.80297852 369.96569824 C257.787859 374.90663947 257.75349772 379.84710318 257.70566559 384.78783226 C257.69080306 386.67487633 257.68293082 388.56198855 257.68209076 390.44909096 C257.67973393 393.08812279 257.65275957 395.72582106 257.61987305 398.36462402 C257.62490341 399.14865097 257.62993378 399.93267792 257.63511658 400.74046326 C257.53249978 406.04600819 257.53249978 406.04600819 255.38717651 408.20724487 C252.56667214 409.79318554 250.77144198 409.89143708 247.54376221 409.90666199 C245.85689049 409.92546921 245.85689049 409.92546921 244.13594055 409.94465637 C242.90667343 409.94322128 241.67740631 409.94178619 240.41088867 409.94030762 C239.11307968 409.95049927 237.81527069 409.96069092 236.47813416 409.97119141 C232.92267703 409.99877618 229.36737984 410.00804785 225.81182957 410.01404548 C222.09484579 410.02342536 218.37798167 410.04962841 214.66107178 410.0740509 C207.624076 410.11773029 200.58710342 410.14626836 193.5500133 410.16937429 C185.53791232 410.19641828 177.52593162 410.24033025 169.51391649 410.28566301 C153.03399682 410.37852987 136.5540556 410.4502012 120.07397461 410.50793457 C119.52049821 412.58347105 119.07397461 414.35159421 119.07397461 416.50793457 C120.11231445 416.89658691 120.11231445 416.89658691 121.17163086 417.29309082 C124.41196228 418.6494072 127.41524034 420.28513503 130.51147461 421.94543457 C141.2399618 427.46371244 152.66661361 431.29362417 164.00846863 435.33232117 C168.774675 437.03209125 173.52153237 438.77932339 178.26147461 440.55090332 C179.60502309 441.05125156 180.9486099 441.55149687 182.29223633 442.05163574 C184.82187807 442.99336399 187.34906401 443.94091749 189.87524414 444.89196777 C191.03652832 445.32211182 192.1978125 445.75225586 193.39428711 446.19543457 C194.39733887 446.57055176 195.40039062 446.94566895 196.43383789 447.33215332 C206.27513103 450.51093721 215.30142966 451.96749269 225.64428711 452.13293457 C227.50946487 452.18248291 227.50946487 452.18248291 229.412323 452.23303223 C234.01226221 452.35516379 238.61250979 452.45432258 243.21307373 452.54968262 C247.75315067 452.64479155 252.29235204 452.76140971 256.83178711 452.88293457 C258.03062531 452.90178711 259.2294635 452.92063965 260.46463013 452.94006348 C261.56692963 452.97019531 262.66922913 453.00032715 263.80493164 453.03137207 C264.77689484 453.05119141 265.74885803 453.07101074 266.75027466 453.09143066 C267.90050613 453.2976001 267.90050613 453.2976001 269.07397461 453.50793457 C271.63178983 457.3446574 271.32703917 460.45329444 271.26928711 464.89465332 C271.26504227 466.12016655 271.26504227 466.12016655 271.26071167 467.37043762 C271.24952002 469.97891916 271.22441751 472.58705687 271.19897461 475.19543457 C271.18894349 476.96430982 271.17981787 478.73319045 271.17163086 480.5020752 C271.14958403 484.83749406 271.11506131 489.17265602 271.07397461 493.50793457 C234.75018904 493.5766736 198.42641492 493.62950033 162.10257765 493.66113056 C157.80951455 493.66488246 153.51645158 493.66876545 149.22338867 493.67272949 C148.36875458 493.67351642 147.51412048 493.67430335 146.63358839 493.67511413 C132.81435951 493.68815087 118.99516825 493.71179513 105.17596166 493.73939296 C90.98520068 493.76749542 76.79445933 493.78412105 62.60367167 493.79020005 C53.85453928 493.79430647 45.10551325 493.80725354 36.35641362 493.83168397 C30.34835199 493.84760099 24.34034497 493.8523215 18.33226381 493.8484387 C14.87130118 493.84652639 11.41052379 493.84935715 7.9495945 493.86555099 C-18.80723797 493.97232375 -18.80723797 493.97232375 -29.92602539 490.50793457 C-30.63655375 490.29063281 -31.3470821 490.07333105 -32.07914162 489.84944439 C-41.15251267 486.76461767 -48.67326232 481.65954821 -55.92602539 475.50793457 C-57.01850586 474.58561035 -57.01850586 474.58561035 -58.13305664 473.64465332 C-71.24853899 461.56392303 -79.13649815 443.79116431 -80.11377025 426.11146796 C-80.18859915 422.20629406 -80.20271474 418.30364852 -80.19345093 414.39802551 C-80.19719383 412.89025575 -80.20179789 411.38248793 -80.20718157 409.87472314 C-80.21934787 405.75746724 -80.21915868 401.64029299 -80.21679282 397.52302325 C-80.21638303 393.07227698 -80.22743918 388.62155633 -80.23690796 384.17082214 C-80.25348386 375.46066018 -80.25901596 366.75052529 -80.26013272 358.04034887 C-80.2610848 350.95645759 -80.26520307 343.87257521 -80.27153397 336.78868675 C-80.28913696 316.68118708 -80.29837429 296.57370871 -80.29687302 276.46620128 C-80.29679311 275.38338391 -80.29671319 274.30056654 -80.29663086 273.18493652 C-80.2965491 272.100789 -80.29646734 271.01664148 -80.2963831 269.899641 C-80.29557044 252.33509359 -80.3147056 234.77063198 -80.34290759 217.20610938 C-80.37167197 199.14807961 -80.38544594 181.09009164 -80.38372004 163.03203839 C-80.38305737 152.90302383 -80.38849553 142.77409922 -80.41007614 132.64510536 C-80.42833473 124.02041961 -80.43259696 115.39586461 -80.41905729 106.77116785 C-80.41255124 102.37621439 -80.41232439 97.98151143 -80.42976379 93.58658218 C-80.44560491 89.55272634 -80.44251983 85.5193173 -80.42519553 81.48547163 C-80.42214971 80.0366673 -80.42566527 78.58782868 -80.43691568 77.13906483 C-80.53194437 64.01872323 -78.46571297 50.85253361 -72.23852539 39.13293457 C-71.8967627 38.472854 -71.555 37.81277344 -71.20288086 37.13269043 C-67.94433361 31.09766013 -63.87207535 26.25447999 -58.92602539 21.50793457 C-58.1899707 20.74094238 -57.45391602 19.9739502 -56.69555664 19.18371582 C-52.02278037 14.57355631 -47.09470246 11.19516338 -41.30102539 8.19543457 C-40.71119873 7.88203125 -40.12137207 7.56862793 -39.51367188 7.24572754 C-26.97146333 1.14023198 -13.70549778 -0.08526435 0 0 Z M230.57397461 45.82043457 C228.89356079 45.85403076 228.89356079 45.85403076 227.17919922 45.88830566 C215.75104363 46.28149044 204.80160871 48.9549896 194.01147461 52.63293457 C193.05321777 52.95640869 192.09496094 53.27988281 191.10766602 53.61315918 C180.66263552 57.20604243 170.31213441 61.06637823 159.96853638 64.9397583 C157.97768601 65.68523312 155.98606327 66.428649 153.99362183 67.16986084 C134.8228008 72.960857 134.8228008 72.960857 119.16723633 84.07263184 C117.78337496 86.44016948 117.78337496 86.44016948 118.76147461 88.75793457 C119.97148816 90.64303034 119.97148816 90.64303034 122.07397461 91.50793457 C123.84786273 91.60126059 125.62530121 91.62984922 127.40164185 91.62818909 C129.0970108 91.63025108 129.0970108 91.63025108 130.82662964 91.63235474 C132.07243805 91.62875946 133.31824646 91.62516418 134.60180664 91.62145996 C136.5627124 91.621679 136.5627124 91.621679 138.56323242 91.62190247 C142.15392222 91.62219007 145.74457881 91.61629924 149.33526087 91.60932851 C153.08555592 91.6030889 156.83585168 91.60249069 160.58615112 91.6013031 C167.69053492 91.59819158 174.79490339 91.5899806 181.89928043 91.57995361 C189.9862325 91.56878692 198.07318528 91.56328062 206.16014314 91.55825818 C222.79809736 91.54779784 239.43603045 91.52945458 256.07397461 91.50793457 C256.40397461 108.99793457 256.73397461 126.48793457 257.07397461 144.50793457 C280.17397461 144.50793457 303.27397461 144.50793457 327.07397461 144.50793457 C327.40397461 137.57793457 327.73397461 130.64793457 328.07397461 123.50793457 C330.67788086 123.32617676 333.28178711 123.14441895 335.96459961 122.95715332 C338.526643 122.77096102 341.08839429 122.58114335 343.65014648 122.39099121 C345.41094182 122.26221135 347.17201114 122.13711619 348.93334961 122.01599121 C361.98129461 121.11523819 374.36286715 120.00448971 386.13647461 113.82043457 C386.80839844 113.47593262 387.48032227 113.13143066 388.17260742 112.77648926 C395.63371347 108.84827925 403.69701573 104.11391262 409.07397461 97.50793457 C408.72655704 95.40262818 408.72655704 95.40262818 408.07397461 93.50793457 C391.10063905 93.34782974 374.17440052 93.81711678 357.2131958 94.43505859 C353.79970178 94.55856127 350.38605171 94.67759756 346.97241211 94.79699707 C340.3394185 95.02931206 333.70673845 95.26876215 327.07397461 95.50793457 C327.07397461 79.33793457 327.07397461 63.16793457 327.07397461 46.50793457 C316.99001624 45.87768717 307.11081982 45.35825018 297.03881836 45.37512207 C295.76788834 45.37366684 294.49695831 45.37221161 293.18751526 45.37071228 C289.8189322 45.36887304 286.45044904 45.37184318 283.08187866 45.37875748 C280.99509728 45.38296761 278.908317 45.38590828 276.8215332 45.38864136 C253.69548902 45.41348126 253.69548902 45.41348126 230.57397461 45.82043457 Z M-4.86352539 127.87902832 C-19.11706845 146.04689665 -21.12609241 166.83069961 -18.61254883 189.31164551 C-17.79099675 194.82718055 -16.49914136 200.16204829 -14.92602539 205.50793457 C-14.73298828 206.17808594 -14.53995117 206.8482373 -14.34106445 207.53869629 C-11.00486453 218.73879603 -5.96929902 229.23596795 -0.97680664 239.77575684 C-0.46891602 240.8488208 0.03897461 241.92188477 0.56225586 243.02746582 C1.02156494 243.98757568 1.48087402 244.94768555 1.95410156 245.93688965 C3.51313723 249.51617994 4.19461103 252.6319315 4.23168945 256.52844238 C4.24209259 257.31241898 4.25249573 258.09639557 4.26321411 258.90412903 C4.27037445 259.74791611 4.27753479 260.59170319 4.28491211 261.46105957 C4.31047919 263.28455729 4.33687842 265.10804349 4.36401367 266.93151855 C4.37726685 267.88356171 4.39052002 268.83560486 4.4041748 269.8164978 C4.99717542 308.75135062 9.09391018 348.83218276 34.07397461 380.50793457 C35.03883789 381.7976416 35.03883789 381.7976416 36.02319336 383.11340332 C38.09327343 385.53046824 40.02376199 387.05796668 42.69897461 388.75793457 C43.47499023 389.25809082 44.25100586 389.75824707 45.05053711 390.27355957 C48.94171217 392.6473266 51.45914437 392.97723934 56.07397461 392.50793457 C60.27072413 389.33705715 61.72140365 386.49597752 63.07397461 381.50793457 C63.33233161 378.89726058 63.5112311 376.3647993 63.60131836 373.75012207 C63.66979575 372.23179847 63.73857327 370.71348838 63.80761719 369.19519043 C63.84045807 368.40885223 63.87329895 367.62251404 63.90713501 366.81234741 C66.68014521 302.24638571 66.68014521 302.24638571 87.07397461 282.50793457 C91.61610363 279.05411765 96.16523834 277.81498723 101.85131836 278.13684082 C108.87944628 279.31025409 113.6617697 283.26887922 118.12866211 288.66418457 C134.39185199 312.43848624 135.09399529 345.92183049 135.50366211 373.57434082 C135.69453525 380.86728555 135.88971953 386.73400262 140.76147461 392.50793457 C144.31828747 394.04601581 147.45490442 393.5167592 151.07397461 392.50793457 C160.93696925 387.47151178 167.78529499 377.93763851 173.07397461 368.50793457 C173.39221191 367.94251953 173.71044922 367.37710449 174.03833008 366.79455566 C190.44476356 337.17649932 194.6702825 304.05433352 194.00073242 270.66833496 C193.80330837 257.25746833 196.66359988 247.28658409 202.38647461 235.25793457 C215.18708319 208.16986916 225.27421713 175.32590152 215.39819336 145.59387207 C209.42875318 131.68278728 200.84974536 121.36235858 186.64819336 115.50793457 C180.20553974 113.2557128 173.96716193 112.34693375 167.13647461 112.25793457 C165.97245117 112.23215332 164.80842773 112.20637207 163.60913086 112.17980957 C149.62917983 112.78150772 136.47468858 117.86315804 123.46069336 122.54577637 C109.0066429 127.71885226 99.44867437 128.84265656 84.57397461 123.88293457 C82.87700439 123.34031982 82.87700439 123.34031982 81.14575195 122.78674316 C77.78321897 121.7093068 74.42784696 120.61199804 71.07397461 119.50793457 C44.97912982 110.95546748 16.31179738 104.87421994 -4.86352539 127.87902832 Z M306.8425293 156.60119629 C301.73602886 156.67332143 296.63048392 156.77070467 291.5246582 156.88024902 C288.41486834 156.94615741 285.30499522 157.00552595 282.19506836 157.0645752 C273.75527924 157.23300876 265.31312837 157.41997885 256.88256836 157.85949707 C255.32493774 157.93998291 255.32493774 157.93998291 253.73583984 158.02209473 C249.45002287 158.80433592 246.69375859 161.1139189 244.07397461 164.50793457 C242.78448937 167.08690505 242.93932593 168.9442644 242.92680359 171.83319092 C242.91964828 172.96318008 242.91249298 174.09316925 242.90512085 175.25740051 C242.90243195 176.50313339 242.89974304 177.74886627 242.89697266 179.03234863 C242.89040146 180.33973495 242.88383026 181.64712128 242.87705994 182.99412537 C242.85964407 186.58726427 242.84909628 190.18038986 242.84085441 193.77356052 C242.83570477 196.01858565 242.82962898 198.26360664 242.82334328 200.50862885 C242.8042883 207.53309262 242.79005864 214.55754588 242.78173131 221.58203053 C242.77196112 229.68982637 242.74564885 237.79734903 242.70523041 245.90504861 C242.67506211 252.17179987 242.66026171 258.43847286 242.65695029 264.70529532 C242.65460032 268.44806515 242.64564753 272.19054326 242.62048912 275.93323517 C242.59286068 280.11097883 242.59704168 284.28811316 242.60400391 288.46594238 C242.59119385 289.70357834 242.57838379 290.94121429 242.56518555 292.21635437 C242.60386241 298.5731866 242.63640232 302.75833445 247.07397461 307.50793457 C250.24505687 309.62198941 250.9935994 309.75724014 254.61669922 309.75085449 C255.54256836 309.75387573 256.4684375 309.75689697 257.42236328 309.76000977 C258.93407104 309.74931458 258.93407104 309.74931458 260.47631836 309.73840332 C261.52996582 309.7384436 262.58361328 309.73848389 263.66918945 309.73852539 C267.11674304 309.73511947 270.56398493 309.71621996 274.01147461 309.69543457 C276.37483664 309.68656531 278.73819928 309.67785833 281.1015625 309.66931152 C288.09261189 309.63760873 295.08321812 309.57840173 302.07397461 309.50793457 C303.07589844 309.4982666 304.07782227 309.48859863 305.11010742 309.4786377 C310.31315831 309.42545489 315.51514018 309.35236301 320.71731567 309.24246216 C322.23731162 309.21130401 323.75740438 309.18453519 325.27755737 309.162323 C327.36529437 309.12945921 329.45164729 309.07761595 331.53881836 309.01965332 C332.68987061 308.99346924 333.84092285 308.96728516 335.02685547 308.94030762 C338.49239749 308.44856217 340.32163357 307.65821022 343.07397461 305.50793457 C345.68252059 301.86404701 346.44971201 299.36221597 346.45492554 294.90457153 C346.46338501 293.78873184 346.47184448 292.67289215 346.4805603 291.52323914 C346.47448761 290.30856461 346.46841492 289.09389008 346.4621582 287.84240723 C346.46741516 286.55569626 346.47267212 285.26898529 346.47808838 283.94328308 C346.4917463 280.42040773 346.48646905 276.89779643 346.47695112 273.37491655 C346.46934333 269.68262565 346.47640354 265.990357 346.48110962 262.29806519 C346.48656529 256.09584506 346.47938199 249.89373216 346.46508789 243.69152832 C346.44877606 236.53136639 346.45403985 229.37146094 346.47056711 222.21130526 C346.48420459 216.05570972 346.48609018 209.90019117 346.4782511 203.74458539 C346.47358513 200.07177301 346.47291967 196.39908095 346.48286057 192.7262764 C346.49317799 188.62811487 346.478856 184.53039145 346.4621582 180.43225098 C346.4682309 179.22162491 346.47430359 178.01099884 346.4805603 176.76368713 C346.43394837 170.58430482 346.17902939 165.91589434 343.07397461 160.50793457 C338.73961384 156.32912517 335.00318011 156.0691455 329.26571655 156.13401794 C328.26658234 156.16588699 327.26744812 156.19775604 326.23803711 156.23059082 C325.18435944 156.24791763 324.13068176 156.26524445 323.04507446 156.28309631 C320.82866663 156.32168619 318.61239841 156.36922418 316.3963623 156.42523193 C313.21170502 156.50450611 310.02785883 156.55797051 306.8425293 156.60119629 Z M358.07397461 201.50793457 C356.77851773 202.57999405 356.77851773 202.57999405 356.94116211 205.11340332 C356.96620473 216.59544314 357.48317 228.04223987 358.07397461 239.50793457 C362.34825686 240.1724685 366.49732299 240.66487912 370.82397461 240.69543457 C371.74694336 240.70961426 372.66991211 240.72379395 373.62084961 240.73840332 C376.33057999 240.6795159 376.33057999 240.6795159 379.07397461 238.50793457 C379.37839377 235.90716105 379.49414906 233.54810056 379.47241211 230.94543457 C379.47528229 230.19834229 379.47815247 229.45125 379.48110962 228.68151855 C379.48315208 227.10118858 379.47760942 225.52083344 379.46508789 223.94055176 C379.4490355 221.51712694 379.464929 219.09536983 379.48413086 216.67199707 C379.48214846 215.13813921 379.47830484 213.60428239 379.47241211 212.07043457 C379.4784848 211.34332275 379.4845575 210.61621094 379.49081421 209.86706543 C379.49393575 207.60606654 379.49393575 207.60606654 379.07397461 204.50793457 C376.07548132 202.50893904 375.27442697 202.23399798 371.87866211 202.05871582 C371.08073242 202.01553223 370.28280273 201.97234863 369.46069336 201.92785645 C368.21739258 201.87468262 368.21739258 201.87468262 366.94897461 201.82043457 C366.11237305 201.77338379 365.27577148 201.72633301 364.41381836 201.67785645 C362.3023564 201.5734811 360.18783828 201.5352509 358.07397461 201.50793457 Z " transform="translate(79.926025390625,-0.5079345703125)" style="fill: #0078d4;"/><path d="M0 0 C4.91634568 -0.15633354 9.82981388 -0.24224073 14.74847412 -0.27746582 C16.46182649 -0.29422634 18.1751036 -0.32177035 19.88812256 -0.35949707 C22.40011581 -0.4141728 24.91052771 -0.43609339 27.42303467 -0.45080566 C28.5652523 -0.48480972 28.5652523 -0.48480972 29.73054504 -0.51950073 C33.44198596 -0.5047113 35.4362924 -0.1486407 38.43179321 2.09565735 C41.32904314 5.84594306 41.43264681 8.73602616 41.36273193 13.28771973 C41.36988724 14.10132462 41.37704254 14.9149295 41.38441467 15.75318909 C41.40128241 18.43446512 41.38191315 21.11406474 41.36053467 23.79528809 C41.36136347 25.66186155 41.36382327 27.52843495 41.36784363 29.39500427 C41.3707002 33.30315165 41.35601288 37.21072545 41.32855225 41.11877441 C41.29444598 46.12832357 41.3004968 51.1368488 41.31921482 56.14644718 C41.32978185 59.99922727 41.32085011 63.85176898 41.30583 67.7045269 C41.30064713 69.5517042 41.30113127 71.39890638 41.30737495 73.2460804 C41.31282458 75.8269114 41.29246229 78.40627473 41.26507568 80.98693848 C41.27160156 81.75016418 41.27812744 82.51338989 41.28485107 83.29974365 C41.22198852 86.78295581 40.99539369 88.72274752 38.87112427 91.54058838 C36.05153034 93.55963433 34.16023182 93.66316589 30.70428467 93.80310059 C28.8386084 93.88503662 28.8386084 93.88503662 26.9352417 93.96862793 C25.53409769 94.00565724 24.13288659 94.04020872 22.73162842 94.07263184 C21.9830658 94.09424377 21.23450317 94.11585571 20.46325684 94.13812256 C15.54687837 94.2757123 10.63297695 94.34447534 5.71478271 94.36779785 C4.00148355 94.37946413 2.28822461 94.40013829 0.57513428 94.42932129 C-1.93674674 94.47187137 -4.44758209 94.48812837 -6.95977783 94.49841309 C-8.10199547 94.52467522 -8.10199547 94.52467522 -9.26728821 94.5514679 C-12.66717668 94.5375609 -14.98722337 94.23061585 -17.96853638 92.55534363 C-21.10357168 89.17101892 -20.96575357 86.26760958 -20.8994751 81.87927246 C-20.9066304 81.05606003 -20.91378571 80.2328476 -20.92115784 79.38468933 C-20.93805661 76.66552105 -20.91863629 73.94799877 -20.89727783 71.22888184 C-20.89810643 69.3384589 -20.90056545 67.44803603 -20.90458679 65.55761719 C-20.90744559 61.59641829 -20.89273564 57.63578457 -20.86529541 53.67468262 C-20.83121244 48.59672766 -20.83723002 43.51978342 -20.85595798 38.44178009 C-20.86652576 34.53838678 -20.85759219 30.63522873 -20.84257317 26.7318573 C-20.83738925 24.85956012 -20.83787569 22.9872384 -20.84411812 21.11494446 C-20.84956768 18.49808921 -20.82920458 15.88268152 -20.80181885 13.26599121 C-20.80834473 12.49184372 -20.81487061 11.71769623 -20.82159424 10.92008972 C-20.75918666 7.41373225 -20.54289545 5.43780058 -18.40786743 2.59780884 C-15.58762868 0.58735236 -13.69278543 0.48402597 -10.24102783 0.34606934 C-8.37535156 0.264375 -8.37535156 0.264375 -6.47198486 0.18103027 C-3.23583831 0.09593127 -3.23583831 0.09593127 0 0 Z " transform="translate(364.26837158203125,172.9273681640625)" style="fill: #0078d4;"/><path d="M0 0 C1.3385293 0.03177518 2.67707157 0.0630081 4.015625 0.09375 C5.36467033 0.14352908 6.71363392 0.19557983 8.0625 0.25 C9.31160156 0.29640625 10.56070312 0.3428125 11.84765625 0.390625 C15 1 15 1 16.9453125 2.8515625 C18.44021443 5.89673309 17.90573426 7.79509416 17 11 C13.15792316 14.84207684 6.30485118 13.36986635 1.125 13.375 C-0.16792969 13.39949219 -1.46085937 13.42398437 -2.79296875 13.44921875 C-4.03433594 13.45308594 -5.27570313 13.45695312 -6.5546875 13.4609375 C-7.69405762 13.46915527 -8.83342773 13.47737305 -10.00732422 13.48583984 C-13.63690437 12.89660306 -14.83631101 11.92967855 -17 9 C-17 5.9375 -17 5.9375 -16 3 C-11.35064654 -1.48143099 -6.05089952 -0.26892887 0 0 Z " transform="translate(374,279)" style="fill: #0078d4;"/></svg>