<?xml version="1.0" encoding="UTF-8"?>
<!-- Generator: visioncortex VTracer -->
<svg id="svg" version="1.1" xmlns="http://www.w3.org/2000/svg" style="display: block;" viewBox="0 0 460 511"><path d="M0 0 C151.8 0 303.6 0 460 0 C460 168.63 460 337.26 460 511 C308.2 511 156.4 511 0 511 C0 342.37 0 173.74 0 0 Z " transform="translate(0,0)" style="fill: #FDFDFD;"/><path d="M0 0 C3.00555398 0.00456239 6.01104757 0.00455547 9.01660156 0 C62.01946438 -0.08021929 62.01946438 -0.08021929 88.32983398 3.60449219 C91.23565074 4.01132635 94.14360188 4.3985129 97.05249023 4.78271484 C106.78747732 6.08759087 116.44913687 7.58335644 126.08447266 9.49243164 C129.38334713 10.11901876 132.67873726 10.61623451 136.00561523 11.06787109 C142.13876797 11.9733862 148.00836958 13.53605587 153.96655273 15.20458984 C156.74829909 15.94534702 159.41923065 16.49938141 162.25561523 16.94287109 C170.2923652 18.43115813 177.91926522 22.0271041 185.44311523 25.13037109 C186.61874023 25.61248047 187.79436523 26.09458984 189.00561523 26.59130859 C203.24090635 32.96483666 219.67979353 41.66582281 226.51089478 56.43969727 C227.48631212 59.25505053 227.7082474 61.38814652 227.73364258 64.35693359 C227.74640228 65.3756958 227.75916199 66.39445801 227.77230835 67.4440918 C227.77564682 69.08317505 227.77564682 69.08317505 227.77905273 70.75537109 C227.78570953 71.89385498 227.79236633 73.03233887 227.79922485 74.20532227 C227.80934436 76.61603178 227.81404209 79.02676927 227.8137207 81.4375 C227.81806661 85.08951385 227.85432014 88.74029187 227.89233398 92.39208984 C227.96748977 107.7353879 227.38953299 119.82926817 218.81030273 133.00927734 C216.08090836 136.85627117 216.08090836 136.85627117 215.79858398 141.34912109 C216.11762695 142.72583984 216.11762695 142.72583984 216.44311523 144.13037109 C217.19047228 156.57815401 216.31720722 167.08418005 210.81811523 178.50537109 C205.10217397 184.82299038 197.92221175 189.66811481 189.29467773 190.39599609 C179.56912943 190.34889901 172.77407041 189.36142808 164.52124023 183.95849609 C162.45973006 182.88092381 162.45973006 182.88092381 160.36499023 183.80224609 C158.43421659 185.03874481 158.43421659 185.03874481 157.05639648 186.59521484 C150.05852876 193.25420278 137.59676751 194.30962021 128.44311523 195.13037109 C127.72768555 195.20255859 127.01225586 195.27474609 126.27514648 195.34912109 C116.55429095 195.84656359 106.85281281 192.73190373 98.44311523 188.13037109 C97.45311523 188.13037109 96.46311523 188.13037109 95.44311523 188.13037109 C94.36030273 189.24412109 94.36030273 189.24412109 93.25561523 190.38037109 C80.3555818 202.99373712 59.61949469 201.53790502 42.91447449 201.43074036 C29.27286827 201.26476577 14.61476854 200.50647974 4.44311523 190.13037109 C4.44311523 189.47037109 4.44311523 188.81037109 4.44311523 188.13037109 C3.46084961 188.92701172 3.46084961 188.92701172 2.45874023 189.73974609 C-15.04167316 203.2852638 -37.48306785 203.5230523 -58.71069336 201.11474609 C-71.41923269 199.49317381 -81.43150645 196.42116412 -90.55688477 187.13037109 C-91.09442383 187.40751953 -91.63196289 187.68466797 -92.18579102 187.97021484 C-94.91938711 189.30774045 -97.69096083 190.50857473 -100.49438477 191.69287109 C-102.02385742 192.34449219 -102.02385742 192.34449219 -103.58422852 193.00927734 C-117.04637163 198.08632737 -132.20295475 195.04689474 -145.55688477 191.13037109 C-146.21688477 190.80037109 -146.87688477 190.47037109 -147.55688477 190.13037109 C-147.55688477 189.47037109 -147.55688477 188.81037109 -147.55688477 188.13037109 C-148.29938477 187.84162109 -149.04188477 187.55287109 -149.80688477 187.25537109 C-152.55688477 186.13037109 -152.55688477 186.13037109 -154.43188477 184.75537109 C-156.82204593 183.7817598 -156.82204593 183.7817598 -159.80688477 185.88037109 C-160.42176758 186.26193359 -161.03665039 186.64349609 -161.67016602 187.03662109 C-169.25596841 191.4341877 -179.08697939 190.93340603 -187.55688477 190.13037109 C-195.68091984 187.83815647 -202.74113644 182.09261742 -206.90454102 174.75537109 C-209.55599095 168.97730099 -210.70061018 164.35323583 -210.40844727 157.96630859 C-210.37364258 156.76103516 -210.33883789 155.55576172 -210.30297852 154.31396484 C-210.22296643 151.79745577 -210.11922445 149.28157673 -209.99047852 146.76708984 C-209.81324963 138.82554769 -210.83678383 134.44029388 -215.86010742 128.24414062 C-217.96278279 125.62472143 -218.97729345 123.08569607 -219.93188477 119.88037109 C-220.37661133 118.44951172 -220.37661133 118.44951172 -220.83032227 116.98974609 C-222.47062068 110.53437814 -222.73037691 104.38809277 -222.76000977 97.76318359 C-222.76570984 96.7696286 -222.77140991 95.77607361 -222.77728271 94.75241089 C-222.78670241 92.65624039 -222.79325461 90.56005529 -222.79711914 88.46386719 C-222.80683108 85.27301022 -222.8378862 82.08279609 -222.86938477 78.89208984 C-222.8759152 76.84912489 -222.88116551 74.80615537 -222.88500977 72.76318359 C-222.89735657 71.81710236 -222.90970337 70.87102112 -222.92242432 69.89627075 C-222.88768552 59.46705392 -219.21533608 51.91780592 -212.11938477 44.25537109 C-206.90451405 39.1853579 -200.8410326 35.71820636 -194.55688477 32.13037109 C-193.59395508 31.54384766 -192.63102539 30.95732422 -191.63891602 30.35302734 C-175.82587041 21.14093605 -157.61555149 16.45516533 -139.8527832 12.62792969 C-138.35367271 12.30304802 -136.85674473 11.96787753 -135.36254883 11.62109375 C-129.30046561 10.21851002 -123.20639214 9.19530435 -117.05688477 8.25537109 C-115.9540918 8.08610107 -114.85129883 7.91683105 -113.71508789 7.74243164 C-104.18169214 6.31229053 -94.62697044 5.09574133 -85.05688477 3.94287109 C-84.00488892 3.81613007 -84.00488892 3.81613007 -82.93164062 3.68682861 C-78.47509362 3.1525818 -74.01786561 2.62645492 -69.55688477 2.13037109 C-68.45636024 2.00435516 -68.45636024 2.00435516 -67.33360291 1.87579346 C-60.43800144 1.12815453 -53.55374296 0.806304 -46.62329102 0.57568359 C-45.37133438 0.533638 -44.11937775 0.49159241 -42.82948303 0.44827271 C-28.55432681 0.01155937 -14.28077753 -0.02183073 0 0 Z " transform="translate(226.556884765625,2.86962890625)" style="fill: #080808;"/><path d="M0 0 C13.00606013 -0.11126112 26.0092475 -0.09811742 39.01531982 0.00323486 C42.23057635 0.0271639 45.44584039 0.0457175 48.66113281 0.06414795 C83.60766591 0.28831229 118.29695764 1.92972905 153.12567139 4.78649902 C155.85049862 5.00726374 158.57579302 5.2188124 161.30175781 5.42498779 C178.22991929 6.70751112 194.63725513 8.69887534 211.08251953 13.02606201 C211.87126465 13.22457764 212.66000977 13.42309326 213.47265625 13.62762451 C221.8447896 15.76655575 229.614903 17.86900986 235.08251953 25.02606201 C236.18074844 29.06923126 236.06583502 32.93350245 235.93408203 37.10028076 C235.92421768 38.84061333 235.92421768 38.84061333 235.91415405 40.61610413 C235.88273953 44.31678808 235.79477646 48.01381999 235.70751953 51.71356201 C235.68452158 54.1816311 235.66495575 56.6497347 235.64892578 59.11785889 C235.62205225 61.50786939 235.59219935 63.89784862 235.55908203 66.28778076 C235.54430817 67.38507004 235.5295343 68.48235931 235.51431274 69.61289978 C235.31435233 77.85124545 234.70335399 86.16355863 232.08251953 94.02606201 C232.02175206 96.4237469 232.0222728 98.82314539 232.05517578 101.22137451 C232.0678353 102.67449702 232.08019526 104.12762216 232.09228516 105.58074951 C232.11695486 107.85817804 232.14478891 110.135467 232.1784668 112.41278076 C232.47942429 134.13859432 232.47942429 134.13859432 225.92236328 142.17059326 C219.65078412 148.49543424 212.35141153 152.20975458 203.37158203 152.40496826 C202.36224609 152.40303467 202.36224609 152.40303467 201.33251953 152.40106201 C200.63384766 152.40235107 199.93517578 152.40364014 199.21533203 152.40496826 C193.25248281 152.28395103 188.35600657 150.86563195 183.08251953 148.02606201 C182.42251953 148.74793701 181.76251953 149.46981201 181.08251953 150.21356201 C170.4060197 160.89006184 157.63925329 161.27230812 143.39111328 161.27703857 C133.72200357 161.17025122 124.8209509 160.25979839 117.08251953 154.02606201 C116.46376953 154.89231201 115.84501953 155.75856201 115.20751953 156.65106201 C109.17703884 163.90138353 100.07331536 167.68926138 90.88720703 168.65887451 C88.91146803 168.83257317 86.93482643 168.99622899 84.95751953 169.15106201 C83.92071045 169.23452881 82.88390137 169.31799561 81.81567383 169.4039917 C74.88047006 169.93851783 68.03643047 170.42342835 61.08251953 170.02606201 C59.97529541 169.97240479 59.97529541 169.97240479 58.84570312 169.91766357 C44.27374576 169.13829283 33.78951141 166.07237392 22.08251953 157.02606201 C21.15439453 157.91293701 20.22626953 158.79981201 19.27001953 159.71356201 C2.75223707 173.57670086 -22.79619408 170.92284511 -42.97998047 169.27606201 C-43.8363208 169.21450928 -44.69266113 169.15295654 -45.57495117 169.08953857 C-54.91855348 168.2108699 -64.05662257 164.49652905 -70.29248047 157.27606201 C-70.82873047 156.53356201 -71.36498047 155.79106201 -71.91748047 155.02606201 C-72.90748047 155.42824951 -72.90748047 155.42824951 -73.91748047 155.83856201 C-76.26717055 156.76864767 -78.61882473 157.68823347 -80.97998047 158.58856201 C-81.63095703 158.83735107 -82.28193359 159.08614014 -82.95263672 159.34246826 C-94.7198585 163.4364321 -112.50561234 162.79282059 -123.91748047 158.02606201 C-129.2268602 155.40803913 -133.55761592 152.99608529 -136.91748047 148.02606201 C-140.71051772 149.02799638 -143.63284388 149.83630428 -146.91748047 152.02606201 C-156.4413372 153.00254266 -167.42627247 152.77892902 -175.55810547 147.22137451 C-183.12839471 140.74999823 -185.89168119 134.8294392 -186.91748047 125.02606201 C-187.23111972 117.36542331 -187.04665146 109.84489873 -186.22998047 102.21356201 C-185.75369684 96.93529552 -186.40424216 92.84946271 -188.12841797 87.85418701 C-190.25188087 80.24335957 -190.08829837 72.2271812 -190.12060547 64.38543701 C-190.12630554 63.30022766 -190.13200562 62.21501831 -190.13787842 61.09692383 C-190.14727213 58.81777914 -190.15383982 56.53862121 -190.15771484 54.25946045 C-190.16749026 50.77257041 -190.19859478 47.28625335 -190.22998047 43.79949951 C-190.23650502 41.57814882 -190.24175764 39.35679395 -190.24560547 37.13543701 C-190.25795227 36.09578796 -190.27029907 35.05613892 -190.28302002 33.98498535 C-190.25519224 24.9756959 -190.25519224 24.9756959 -186.91748047 21.02606201 C-181.97424297 16.89019459 -176.5933491 15.53315354 -170.47998047 13.96356201 C-169.5834375 13.72057373 -168.68689453 13.47758545 -167.76318359 13.22723389 C-153.76177208 9.51779457 -139.86675477 7.36173544 -125.47998047 6.02606201 C-124.60677155 5.94335052 -123.73356262 5.86063904 -122.83389282 5.77542114 C-81.92845917 1.92425245 -41.07359273 0.36691264 0 0 Z " transform="translate(206.91748046875,339.97393798828125)" style="fill: #040404;"/><path d="M0 0 C13.05032038 10.56454507 17.26384762 25.63169021 19.1328125 41.7265625 C20.19109314 64.49190176 20.19109314 64.49190176 13.1328125 72.7265625 C4.2281256 80.71794818 -9.57375182 80.19060223 -20.87988281 80.06274414 C-23.12861556 80.03894154 -25.37617114 80.0422369 -27.625 80.04882812 C-38.47397105 80.02878425 -47.98345417 79.61983671 -56.8671875 72.7265625 C-61.84257714 67.58532653 -62.39969892 60.54966958 -62.8671875 53.7265625 C-62.94839844 52.61861328 -62.94839844 52.61861328 -63.03125 51.48828125 C-63.33062402 43.39157488 -61.5859967 35.58971301 -59.8671875 27.7265625 C-59.67382812 26.80488281 -59.48046875 25.88320313 -59.28125 24.93359375 C-56.9030151 15.4669834 -51.19387468 5.07943283 -42.8671875 -0.2734375 C-42.2071875 -0.2734375 -41.5471875 -0.2734375 -40.8671875 -0.2734375 C-40.8671875 -0.9334375 -40.8671875 -1.5934375 -40.8671875 -2.2734375 C-28.88834763 -11.54737804 -11.4255375 -8.08147775 0 0 Z " transform="translate(297.8671875,417.2734375)" style="fill: #FDFDFD;"/><path d="M0 0 C9.89201864 7.44833815 16.46612815 22.75437268 18.34375 34.67578125 C18.95797229 40.11521958 18.94934842 45.58281286 18.9765625 51.05078125 C18.99033936 52.60792847 18.99033936 52.60792847 19.00439453 54.1965332 C18.97497298 61.49955021 18.63279072 68.91213524 13.7265625 74.73828125 C3.32602791 81.76016859 -8.98383056 82.11316849 -21.1484375 82.05078125 C-22.28522949 82.0458667 -23.42202148 82.04095215 -24.59326172 82.03588867 C-48.0545077 81.70877992 -48.0545077 81.70877992 -56.2734375 73.73828125 C-60.13578869 68.56205106 -61.04273122 63.05762726 -61.2734375 56.73828125 C-61.33337891 55.39636719 -61.33337891 55.39636719 -61.39453125 54.02734375 C-61.81077912 35.76140768 -58.6329618 17.34942094 -46.171875 3.3828125 C-33.82935426 -8.58899648 -14.56032088 -8.08072791 0 0 Z " transform="translate(204.2734375,110.26171875)" style="fill: #FCFCFC;"/><path d="M0 0 C3.60519529 3.51708461 6.27505921 7.60719969 8.91796875 11.87109375 C9.49546875 12.79921875 10.07296875 13.72734375 10.66796875 14.68359375 C15.07510974 25.92180326 16.10252027 37.85606497 16.16796875 49.80859375 C16.18859375 50.74638672 16.20921875 51.68417969 16.23046875 52.65039062 C16.26782511 59.36986604 15.82692227 66.32837722 11.3984375 71.72167969 C1.75089059 81.2532118 -14.31596021 80.08432964 -26.88037109 80.05224609 C-37.68578001 79.90897232 -49.09213021 79.59152858 -58.08203125 72.87109375 C-66.32507239 63.06737016 -63.75221398 46.32490704 -62.91210938 34.47412109 C-61.40376117 20.39509217 -54.64153165 8.52844823 -44.57421875 -1.17578125 C-32.12433973 -10.93273973 -12.13459652 -9.71252137 0 0 Z " transform="translate(299.08203125,112.12890625)" style="fill: #FDFDFD;"/><path d="M0 0 C1.46600196 1.08759804 2.906876 2.21041749 4.3125 3.375 C5.23869141 3.98988281 5.23869141 3.98988281 6.18359375 4.6171875 C14.19231018 10.36063224 19.64460178 22.11582382 22.3125 31.375 C23.36005225 38.75950563 23.49576152 46.04875985 23.5 53.5 C23.51224609 54.64082031 23.52449219 55.78164063 23.53710938 56.95703125 C23.56028025 70.25711127 23.56028025 70.25711127 19.375 76.0625 C9.71161465 83.359342 -2.05369498 83.58236782 -13.6706543 83.61523438 C-15.72031505 83.62486058 -17.76893656 83.65589825 -19.81835938 83.6875 C-30.16651435 83.77040777 -42.57349641 83.65679809 -50.6875 76.375 C-57.22102219 69.29701763 -57.13165234 57.7995294 -56.9375 48.6015625 C-55.62622827 31.67796168 -51.11311023 16.18090613 -38.453125 4.2734375 C-28.87878879 -3.74919595 -11.2156718 -6.58123906 0 0 Z " transform="translate(198.6875,413.625)" style="fill: #FDFDFD;"/><path d="M0 0 C3.18869303 2.86982372 3.3931308 4.56602426 3.65821838 8.74310303 C3.68153481 10.14208832 3.68153481 10.14208832 3.70532227 11.56933594 C3.7352401 13.16053253 3.7352401 13.16053253 3.76576233 14.78387451 C3.78247482 15.92253967 3.79918732 17.06120483 3.81640625 18.234375 C3.83718735 19.40510559 3.85796844 20.57583618 3.87937927 21.78204346 C3.94475628 25.52130269 4.00370491 29.26063205 4.0625 33 C4.10569647 35.5351635 4.14931112 38.07031991 4.19335938 40.60546875 C4.30042559 46.8202384 4.4022141 53.03507778 4.5 59.25 C5.10473145 58.62955811 5.10473145 58.62955811 5.72167969 57.99658203 C7.55913675 56.11743654 9.4044431 54.24618964 11.25 52.375 C12.20132813 51.39853516 12.20132813 51.39853516 13.171875 50.40234375 C13.790625 49.77714844 14.409375 49.15195312 15.046875 48.5078125 C15.61245117 47.9317627 16.17802734 47.35571289 16.76074219 46.76220703 C20.37566782 43.61919056 23.61943161 42.71961567 28.4609375 42.8828125 C32.45507165 43.60206271 33.91410736 45.08228152 36.5 48.25 C37.46268244 51.47529277 37.37390017 54.00722578 36.5 57.25 C34.65690314 60.40770716 32.12114334 62.72470133 29.5 65.25 C28.39701714 66.3697206 27.29699568 67.49236254 26.19921875 68.6171875 C20.76796055 74.15415822 15.3048397 79.59153836 9.37109375 84.59375 C6.27209451 87.33691425 3.43829642 90.343255 0.578125 93.33203125 C-2.54716801 96.21646521 -4.47951048 97.2303752 -8.75 97.3125 C-17.75540513 94.76096855 -24.73564224 85.09203276 -31.14453125 78.56640625 C-35.19255114 74.47398395 -39.31489529 70.57022682 -43.71313477 66.85473633 C-47.10045975 63.8126695 -50.45204809 60.34590381 -52.5 56.25 C-52.63863612 53.12767344 -52.3599966 50.2573173 -51.5 47.25 C-48.35262324 44.17756078 -46.33479818 43.36925688 -42 42.75 C-35.1584254 43.7273678 -30.74322803 48.73353255 -26.125 53.5 C-25.57972656 54.05429687 -25.03445312 54.60859375 -24.47265625 55.1796875 C-23.14377023 56.53188731 -21.82121452 57.8903035 -20.5 59.25 C-20.49413376 58.59933563 -20.48826752 57.94867126 -20.48222351 57.27828979 C-20.41821645 50.49709094 -20.33377737 43.71636344 -20.23754883 36.93554688 C-20.20432486 34.40598775 -20.17628511 31.87635495 -20.15356445 29.34667969 C-20.11997296 25.70736333 -20.06765246 22.06872066 -20.01171875 18.4296875 C-20.00213387 16.73717361 -20.00213387 16.73717361 -19.99235535 15.01046753 C-19.88758492 9.39646785 -19.77659292 5.04471909 -16.5 0.25 C-11.45706164 -3.31093198 -5.2637837 -2.63189185 0 0 Z " transform="translate(237.5,224.75)" style="fill: #050505;"/><path d="M0 0 C1.99112606 0.96896402 3.82004126 2.03413849 5.671875 3.24609375 C6.55875 3.78234375 7.445625 4.31859375 8.359375 4.87109375 C18.33901974 15.12045862 19.17132392 30.65295494 19.046875 44.12109375 C19.05847656 45.39984375 19.07007813 46.67859375 19.08203125 47.99609375 C19.07816406 49.23101562 19.07429688 50.4659375 19.0703125 51.73828125 C19.06692871 52.8454248 19.06354492 53.95256836 19.06005859 55.09326172 C18.48180831 59.78981777 16.81918589 63.09878286 13.484375 66.43359375 C3.32496649 72.98076812 -9.59309633 73.73167975 -21.265625 71.49609375 C-26.13871409 70.2174667 -29.91078206 68.14856749 -32.96508789 64.04882812 C-35.42006798 59.00079456 -34.807239 53.41931788 -34.77416992 47.91113281 C-34.76575718 45.77958359 -34.79427688 43.65080934 -34.82617188 41.51953125 C-34.8910848 28.94116357 -32.55536243 16.21959384 -24.328125 6.24609375 C-17.00971815 0.19884357 -9.51263718 -3.08043452 0 0 Z " transform="translate(363.328125,416.75390625)" style="fill: #FBFBFB;"/><path d="M0 0 C7.73686055 5.12941031 11.2412295 15.54380862 13.51245117 24.18652344 C14.67406168 30.331457 14.55122915 36.48538652 14.49609375 42.71875 C14.50680876 44.06315942 14.51852242 45.40756126 14.53125 46.75195312 C14.52738281 48.03650391 14.52351563 49.32105469 14.51953125 50.64453125 C14.51614746 51.79993408 14.51276367 52.95533691 14.50927734 54.14575195 C13.91403748 59.14539245 12.31256988 62.38498475 8.49609375 65.65625 C-2.07253718 71.13628085 -14.0437249 70.39817427 -25.24609375 67.25390625 C-31.01801558 65.3955872 -34.44879995 63.48788896 -37.87890625 58.40625 C-39.5744158 53.31972136 -39.14395365 47.91810143 -39.17407227 42.59448242 C-39.18549771 41.19333725 -39.20579686 39.79223227 -39.2355957 38.39135742 C-39.50594218 25.66392867 -37.43820169 14.92565789 -29.87890625 4.40625 C-29.28078125 3.478125 -28.68265625 2.55 -28.06640625 1.59375 C-20.30878826 -6.16386799 -8.89483399 -4.99553859 0 0 Z " transform="translate(115.87890625,419.59375)" style="fill: #FBFBFB;"/><path d="M0 0 C1.36125 0.928125 1.36125 0.928125 2.75 1.875 C3.32363281 2.25398438 3.89726562 2.63296875 4.48828125 3.0234375 C11.72046021 8.38175424 14.55988366 16.69900468 16.35961914 25.24975586 C17.13733956 30.47979192 17.0775089 35.72287056 17.0625 41 C17.07861328 42.14082031 17.09472656 43.28164062 17.11132812 44.45703125 C17.11534414 51.37261452 17.09631519 57.25534718 12.171875 62.58203125 C11.34429687 63.12923828 11.34429687 63.12923828 10.5 63.6875 C9.95859375 64.06519531 9.4171875 64.44289063 8.859375 64.83203125 C1.9501899 68.24823944 -4.73589346 68.21055723 -12.3125 68.1875 C-13.37533203 68.20361328 -14.43816406 68.21972656 -15.53320312 68.23632812 C-22.49769563 68.24067821 -26.85103157 67.35532832 -32.5625 63.1875 C-38.58501651 54.93442181 -36.29467583 35.18926487 -34.91748047 25.546875 C-32.60890896 14.675456 -26.50252172 6.28018576 -17.5 -0.0625 C-11.66568513 -1.96987217 -5.80742744 -2.01026334 0 0 Z " transform="translate(364.25,116.125)" style="fill: #FBFBFB;"/><path d="M0 0 C9.14475546 4.17754845 14.83794684 11.47560639 18.3125 20.6875 C21.09787373 28.80856855 21.24735647 36.40369795 21.3125 44.9375 C21.34150391 46.20013672 21.37050781 47.46277344 21.40039062 48.76367188 C21.4633226 57.93721803 21.4633226 57.93721803 19.41796875 62.62890625 C13.64475217 68.29020264 9.32940109 69.50637104 1.390625 69.546875 C0.35421875 69.53140625 -0.6821875 69.5159375 -1.75 69.5 C-2.7709375 69.51546875 -3.791875 69.5309375 -4.84375 69.546875 C-12.39974183 69.50851971 -20.76114866 68.58431414 -26.75341797 63.51733398 C-32.0996571 57.35935723 -31.21715622 50.76026037 -31.25 43.0625 C-31.270625 41.88880859 -31.29125 40.71511719 -31.3125 39.50585938 C-31.36497142 27.64076053 -29.57729949 16.50115727 -22 7 C-15.0974592 0.6887383 -9.41221732 -1.3608025 0 0 Z " transform="translate(109,115)" style="fill: #FBFBFB;"/><path d="M0 0 C7.5782671 4.2272281 10.44541855 11.47815851 12.75 19.4375 C14.18051407 26.19270532 14.3899933 32.92058039 14.5 39.8125 C14.54592285 41.42306274 14.54592285 41.42306274 14.59277344 43.06616211 C14.59491454 49.95247044 13.61947522 54.73857673 9 60 C3.24577264 64.35075727 -3.00046492 64.60211054 -10 64 C-13.24053911 63.19430837 -16.09855813 62.21124753 -18.16430664 59.43554688 C-19.42179438 55.77072137 -19.34592363 52.11429326 -19.37109375 48.28125 C-19.38012222 47.42752808 -19.3891507 46.57380615 -19.39845276 45.69421387 C-19.41295079 43.88537086 -19.42184089 42.07647546 -19.42553711 40.26757812 C-19.43734083 37.53682255 -19.48644809 34.80839759 -19.53710938 32.078125 C-19.63518364 21.51462678 -19.26131054 11.98887711 -12.62744141 3.17675781 C-9.03724103 -0.38057196 -4.78194677 -1.28566848 0 0 Z " transform="translate(413,415)" style="fill: #FAFAFA;"/><path d="M0 0 C6.27729817 3.7663789 9.27201675 9.80605303 11.54858398 16.64892578 C12.20974154 20.09238021 12.18319048 23.52572374 12.203125 27.01953125 C12.20882507 27.79632736 12.21452515 28.57312347 12.22039795 29.37345886 C12.22982748 31.01499071 12.23637379 32.65654131 12.24023438 34.2980957 C12.2499261 36.79347238 12.28096219 39.28802001 12.3125 41.78320312 C12.31903231 43.38280764 12.32428189 44.98241801 12.328125 46.58203125 C12.3404718 47.32081009 12.3528186 48.05958893 12.36553955 48.820755 C12.34390963 53.91855717 11.39650957 57.47602468 9 62 C3.72487052 65.27328547 -3.02105783 64.48192985 -9 64 C-14.5257463 62.15808457 -17.34502104 59.05488947 -20.08984375 53.98828125 C-21.44855733 49.52726886 -21.33957768 45.20102437 -21.3125 40.5625 C-21.30758545 39.58055664 -21.3026709 38.59861328 -21.29760742 37.58691406 C-21.10406994 25.49826535 -19.51590821 12.95987679 -11.58984375 3.27734375 C-7.93113466 -0.22526042 -4.89444919 -0.87400878 0 0 Z " transform="translate(53,415)" style="fill: #FAFAFA;"/><path d="M0 0 C4.33475678 1.37924079 5.66040017 3.8838212 7.6875 7.75 C11.78002633 16.22832817 12.37275401 24.19685594 12.37060547 33.44311523 C12.37499729 35.5611915 12.4114419 37.67721048 12.44921875 39.79492188 C12.45508518 41.15624296 12.45905574 42.51757382 12.4609375 43.87890625 C12.46915527 45.1016626 12.47737305 46.32441895 12.48583984 47.58422852 C11.90406993 51.67445105 10.57911822 53.80745884 8 57 C2.03704936 60.72684415 -4.10763443 60.54385889 -11 60 C-11.66 59.67 -12.32 59.34 -13 59 C-13 58.34 -13 57.68 -13 57 C-13.598125 56.9175 -14.19625 56.835 -14.8125 56.75 C-17.71536869 55.75473074 -18.44004778 54.623556 -20 52 C-22.10864697 46.90217216 -22.34999371 42.36593695 -22.3125 36.9375 C-22.30758545 36.09912598 -22.3026709 35.26075195 -22.29760742 34.39697266 C-22.06461339 21.92044102 -19.13242226 11.98579696 -11.75 1.9375 C-7.82512046 -0.82775604 -4.65134438 -0.7299555 0 0 Z " transform="translate(52,120)" style="fill: #FBFBFB;"/><path d="M0 0 C7.24312794 4.05615165 10.54354357 12.06191915 12.8203125 19.78125 C14.07591196 26.07693182 14.24407644 32.47259304 14.375 38.875 C14.40126465 39.68396729 14.4275293 40.49293457 14.45458984 41.32641602 C14.46912379 46.71459667 13.54494942 49.71217515 10 54 C5.61012302 58.15883083 1.5807969 59.81230568 -4.4375 60.25 C-9.95910002 59.8625193 -13.63292315 59.34519662 -17.66943359 55.37329102 C-20.4127391 51.9076366 -20.64434887 49.08593963 -20.6640625 44.65234375 C-20.66884613 43.95919571 -20.67362976 43.26604767 -20.67855835 42.55189514 C-20.68194594 41.08869145 -20.67282311 39.62541089 -20.65185547 38.16235352 C-20.62534953 35.96645708 -20.65148164 33.77580519 -20.68359375 31.58007812 C-20.70991631 21.0253279 -19.45184215 10.09740138 -11.6875 2.1875 C-7.67605376 -0.69027665 -4.83121062 -0.84354471 0 0 Z " transform="translate(415,120)" style="fill: #FBFBFB;"/><path d="M0 0 C1.60872253 0.00503589 3.21744663 0.00959502 4.82617188 0.01367188 C8.69668725 0.02362179 12.56697602 0.04322235 16.4375 0.0625 C16.4375 9.6325 16.4375 19.2025 16.4375 29.0625 C-1.0525 29.3925 -18.5425 29.7225 -36.5625 30.0625 C-36.5625 8.6875 -36.5625 8.6875 -35.5625 1.0625 C-23.69096539 0.22405337 -11.89874455 -0.06618045 0 0 Z " transform="translate(207.5625,38.9375)" style="fill: #FCFCFC;"/><path d="M0 0 C37.25531915 -0.19148936 37.25531915 -0.19148936 51 1 C52.89691608 10.48458038 52 20.32758791 52 30 C34.84 29.67 17.68 29.34 0 29 C0 19.43 0 9.86 0 0 Z " transform="translate(235,39)" style="fill: #FCFCFC;"/><path d="M0 0 C0.66 5.28 1.32 10.56 2 16 C0.35 16.99 -1.3 17.98 -3 19 C-12.48564558 25.21413643 -19.17157055 33.78134271 -24 44 C-24.495 43.360625 -24.99 42.72125 -25.5 42.0625 C-26.325 41.051875 -27.15 40.04125 -28 39 C-28.57105469 38.28714844 -29.14210937 37.57429688 -29.73046875 36.83984375 C-33.18252497 32.71253501 -35.89190562 29.82998985 -40.875 27.6875 C-43.85889234 26.19812172 -44.79259023 25.53654264 -46.01171875 22.3828125 C-47.15932567 15.98551435 -47.2582247 9.48430909 -47 3 C-31.30301876 1.14800794 -15.82450606 -0.16313924 0 0 Z " transform="translate(161,80)" style="fill: #FBFBFB;"/><path d="M0 0 C-0.33 9.24 -0.66 18.48 -1 28 C-7.61681386 28.94525912 -14.13407393 29.49433796 -20.79614258 29.92993164 C-22.79733293 30.06150282 -24.79808592 30.19967179 -26.79882812 30.33789062 C-33.87779662 30.80840677 -40.90505735 31.14141699 -48 31 C-48.02892385 26.87501462 -48.04677267 22.75005515 -48.0625 18.625 C-48.07087891 17.449375 -48.07925781 16.27375 -48.08789062 15.0625 C-48.09111328 13.94101562 -48.09433594 12.81953125 -48.09765625 11.6640625 C-48.10289307 10.62717285 -48.10812988 9.5902832 -48.11352539 8.52197266 C-48 6 -48 6 -47 4 C-38.50493673 1.7292923 -29.42311284 1.44583276 -20.6875 0.875 C-19.46482422 0.78863281 -18.24214844 0.70226563 -16.98242188 0.61328125 C-11.28727376 0.22349925 -5.71932948 0 0 0 Z " transform="translate(161,41)" style="fill: #FBFBFB;"/><path d="M0 0 C14.63683663 0 14.63683663 0 19.9296875 0.40234375 C21.074375 0.48806641 22.2190625 0.57378906 23.3984375 0.66210938 C24.54570312 0.75298828 25.69296875 0.84386719 26.875 0.9375 C28.63070313 1.06801758 28.63070313 1.06801758 30.421875 1.20117188 C35.98370644 1.62682224 41.49250832 2.1088461 47 3 C48.01894076 8.84888043 48.11798453 14.50919169 48.0625 20.4375 C48.05798828 21.35982422 48.05347656 22.28214844 48.04882812 23.23242188 C48.03713938 25.48835048 48.02075455 27.74413967 48 30 C31.95113175 29.437844 16.00218724 28.35611756 0 27 C0 18.09 0 9.18 0 0 Z " transform="translate(298,42)" style="fill: #F9F9F9;"/><path d="M0 0 C10.50905102 -0.15069741 20.89447793 0.31297942 31.375 1 C32.90101625 1.09675592 34.42705789 1.19311217 35.953125 1.2890625 C39.63571964 1.52145504 43.31794544 1.75918377 47 2 C46.5240685 5.25048232 46.04368951 8.50029224 45.5625 11.75 C45.42779297 12.67039062 45.29308594 13.59078125 45.15429688 14.5390625 C45.02216797 15.42851563 44.89003906 16.31796875 44.75390625 17.234375 C44.57323608 18.45979004 44.57323608 18.45979004 44.38891602 19.70996094 C43.36757754 25.72386858 43.36757754 25.72386858 41.3984375 27.203125 C40.73070312 27.54859375 40.06296875 27.8940625 39.375 28.25 C34.56182775 31.04474518 31.43746981 34.68358222 28 39 C27.195625 39.99 26.39125 40.98 25.5625 42 C25.046875 42.66 24.53125 43.32 24 44 C23.62488281 43.27554688 23.24976563 42.55109375 22.86328125 41.8046875 C19.97041716 36.33957901 17.05398552 31.65015986 13 27 C13 26.34 13 25.68 13 25 C10.82916487 23.89429426 8.66839268 22.86032298 6.421875 21.9140625 C3.51459088 20.51142542 1.31511014 19.26318243 -1 17 C-2.36771965 11.22431532 -1.16366621 5.71719504 0 0 Z " transform="translate(298,80)" style="fill: #FBFBFB;"/><path d="M0 0 C15.60863968 2.13591911 30.84042383 4.65293085 46 9 C46.86809439 14.20173095 47.12515348 19.16978816 47.0625 24.4375 C47.05798828 25.16904297 47.05347656 25.90058594 47.04882812 26.65429688 C47.03718148 28.43623419 47.01925191 30.21812863 47 32 C42.71972757 31.51544086 38.53386703 30.91891152 34.3125 30.0625 C27.7350861 28.82112893 21.09836596 28.27870718 14.43676758 27.69750977 C13.56431396 27.62072998 12.69186035 27.5439502 11.79296875 27.46484375 C10.62544067 27.36610962 10.62544067 27.36610962 9.43432617 27.26538086 C6.60816405 26.95728355 3.80422551 26.46737092 1 26 C0.67 17.42 0.34 8.84 0 0 Z " transform="translate(355,47)" style="fill: #F7F7F7;"/><path d="M0 0 C-0.33 8.58 -0.66 17.16 -1 26 C-13.14038877 28.20734341 -13.14038877 28.20734341 -19.25 28.4375 C-25.99391235 28.81024439 -32.28435819 29.9163268 -38.85546875 31.37890625 C-42 32 -42 32 -46 32 C-46.02714434 29.2915983 -46.04690846 26.58347279 -46.0625 23.875 C-46.07087891 23.11445312 -46.07925781 22.35390625 -46.08789062 21.5703125 C-46.10646509 17.2610356 -45.86117265 13.24483526 -45 9 C-42.18831904 8.20532858 -39.37571498 7.41420767 -36.5625 6.625 C-35.77939453 6.40328125 -34.99628906 6.1815625 -34.18945312 5.953125 C-26.03686468 3.67174223 -17.97639581 1.84982933 -9.5625 0.875 C-8.85673828 0.78863281 -8.15097656 0.70226563 -7.42382812 0.61328125 C-2.32775298 0 -2.32775298 0 0 0 Z " transform="translate(103,47)" style="fill: #F8F8F8;"/><path d="M0 0 C9.12542677 -0.41479213 17.45022597 0.3579875 26.4375 1.875 C27.46746094 2.04870117 28.49742187 2.22240234 29.55859375 2.40136719 C34.81472049 3.32700669 39.90477373 4.40908547 45 6 C44.69956442 17.60773843 41.56165731 29.8365593 33 38 C29 33 29 33 27.1875 30.5 C19.50743554 21.72278348 9.17514921 19.59644989 -2 18 C-1.34 12.06 -0.68 6.12 0 0 Z " transform="translate(355,84)" style="fill: #F9F9F9;"/><path d="M0 0 C1.18695553 3.56086658 1.35095418 6.97331024 1.5625 10.6875 C1.60568359 11.38939453 1.64886719 12.09128906 1.69335938 12.81445312 C1.7991736 14.54275206 1.90006581 16.2713511 2 18 C1.01 18.17015625 0.02 18.3403125 -1 18.515625 C-13.98001609 20.84693125 -20.48800865 23.7516379 -29 34 C-29.98654889 35.01327256 -30.98137139 36.01898229 -32 37 C-40.98040881 28.65023788 -43.46031984 17.95391554 -44 6 C-29.36097325 2.58090759 -15.13161126 -0.49884433 0 0 Z " transform="translate(103,84)" style="fill: #F8F8F8;"/><path d="M0 0 C18.38835175 0 18.38835175 0 25.4375 0.21875 C26.21391846 0.24094604 26.99033691 0.26314209 27.7902832 0.28601074 C30.19359059 0.35519428 32.5967902 0.42751452 35 0.5 C36.66145218 0.54838866 38.32291052 0.59656674 39.984375 0.64453125 C43.98965799 0.76060571 47.99484822 0.87948647 52 1 C51.67 5.29 51.34 9.58 51 14 C49.38544922 14.03867188 49.38544922 14.03867188 47.73828125 14.078125 C30.76566106 14.65988723 16.40117026 18.62074782 4.4375 31.421875 C3.7259375 32.20304687 3.7259375 32.20304687 3 33 C2.01 33.99 1.02 34.98 0 36 C0 24.12 0 12.24 0 0 Z " transform="translate(235,78)" style="fill: #FAFAFA;"/><path d="M0 0 C17.16 0 34.32 0 52 0 C52 11.22 52 22.44 52 34 C50.35 32.35 48.7 30.7 47 29 C45.61784482 27.7348922 44.22312978 26.48327787 42.8125 25.25 C42.13832031 24.65703125 41.46414062 24.0640625 40.76953125 23.453125 C39.05331968 21.93415284 39.05331968 21.93415284 37 21 C37 20.34 37 19.68 37 19 C36.29230469 18.87753906 35.58460938 18.75507812 34.85546875 18.62890625 C31.87606849 17.97270455 29.17726131 16.9822953 26.3125 15.9375 C17.93244516 13.2693676 9.70763863 13.64817622 1 14 C0.67 9.38 0.34 4.76 0 0 Z " transform="translate(172,79)" style="fill: #FBFBFB;"/><path d="M0 0 C10.5375 3.5125 10.5375 3.5125 15.125 5.375 C16.07632812 5.75398438 17.02765625 6.13296875 18.0078125 6.5234375 C18.99523437 7.01070313 19.98265625 7.49796875 21 8 C21.63010986 8.29640381 22.26021973 8.59280762 22.90942383 8.89819336 C25.03268526 10.09717683 26.45668215 11.1035501 28 13 C28.85174988 16.64093084 28.66444829 20.09902736 28.4375 23.8125 C28.39012695 25.28106445 28.39012695 25.28106445 28.34179688 26.77929688 C28.2595047 29.18928203 28.1446501 31.59308593 28 34 C22.24927324 32.28376748 17.19634207 29.6348057 11.921875 26.83398438 C11.24640625 26.48529297 10.5709375 26.13660156 9.875 25.77734375 C9.27429688 25.46015381 8.67359375 25.14296387 8.0546875 24.81616211 C5.42127714 23.68632281 5.42127714 23.68632281 0 23 C0 15.41 0 7.82 0 0 Z " transform="translate(412,60)" style="fill: #F7F7F7;"/><path d="M0 0 C0 7.26 0 14.52 0 22 C-2.97 22.99 -5.94 23.98 -9 25 C-10.52568193 25.64301499 -12.04040346 26.31483262 -13.52734375 27.04296875 C-14.25630859 27.39423828 -14.98527344 27.74550781 -15.73632812 28.10742188 C-16.46271484 28.46384766 -17.18910156 28.82027344 -17.9375 29.1875 C-25.74277583 33 -25.74277583 33 -28 33 C-29.61001009 15.3394278 -29.61001009 15.3394278 -26.3359375 10.58203125 C-23.62086799 8.96116199 -21.00149332 8.00407098 -18 7 C-16.60787686 6.38874981 -15.22278878 5.7613169 -13.84375 5.12109375 C-2.75116417 0 -2.75116417 0 0 0 Z " transform="translate(47,60)" style="fill: #F6F6F6;"/><path d="M0 0 C34.90205657 -0.20638953 34.90205657 -0.20638953 48 1 C49.1577506 4.47325181 49.06866652 7.36067448 49 11 C44.59315522 10.87943977 40.18643526 10.75511931 35.77978516 10.62768555 C34.28860165 10.58504837 32.79739112 10.54334363 31.30615234 10.50268555 C20.85271845 10.21682189 10.43268461 9.71958683 0 9 C0 6.03 0 3.06 0 0 Z " transform="translate(235,18)" style="fill: #FCFCFC;"/><path d="M0 0 C15.15940282 0.43312579 30.02501427 2.7131482 45 5 C45.99 8.3 46.98 11.6 48 15 C41.1597287 15.18977834 34.59057398 14.44035702 27.8125 13.5625 C19.2078449 12.48495695 10.65617522 11.54785919 2 11 C1.34 7.37 0.68 3.74 0 0 Z " transform="translate(294,20)" style="fill: #EEEEEE;"/><path d="M0 0 C0 3.3 0 6.6 0 10 C-16.17 10.33 -32.34 10.66 -49 11 C-48.67 8.03 -48.34 5.06 -48 2 C-31.95442265 0.47358961 -16.11683232 -0.27290967 0 0 Z " transform="translate(224,18)" style="fill: #F8F8F8;"/><path d="M0 0 C0.33820166 1.5823006 0.67035939 3.16589375 1 4.75 C1.185625 5.63171875 1.37125 6.5134375 1.5625 7.421875 C2 10 2 10 2 14 C1.31035156 14.01417969 0.62070312 14.02835938 -0.08984375 14.04296875 C-7.03514358 14.39547368 -12.5760809 15.44431654 -18 20 C-20.05903113 22.57477315 -21.85810763 25.18393317 -23.58984375 27.98828125 C-24.28787109 28.98408203 -24.28787109 28.98408203 -25 30 C-25.66 30 -26.32 30 -27 30 C-27.50980881 28.29456816 -28.00738268 26.58547682 -28.5 24.875 C-28.91765625 23.44800781 -28.91765625 23.44800781 -29.34375 21.9921875 C-30.0583093 18.73413736 -30.5152357 16.31094944 -30 13 C-27.61328125 10.83984375 -27.61328125 10.83984375 -24.3125 8.9375 C-23.73250244 8.60169922 -23.15250488 8.26589844 -22.55493164 7.91992188 C-15.64518226 4.04115616 -8.01936091 0 0 0 Z " transform="translate(49,93)" style="fill: #F2F2F2;"/><path d="M0 0 C0.53367188 0.37511719 1.06734375 0.75023437 1.6171875 1.13671875 C2.73480469 1.90435547 2.73480469 1.90435547 3.875 2.6875 C4.59429687 3.18636719 5.31359375 3.68523437 6.0546875 4.19921875 C7.02664062 4.79347656 7.99859375 5.38773437 9 6 C9.6492041 6.41548096 10.2984082 6.83096191 10.96728516 7.2590332 C18.78696786 11.76950011 26.83644024 12.19868653 35.625 12.8125 C37.12124682 12.93234895 38.6173441 13.05408026 40.11328125 13.17773438 C43.74072303 13.47351861 47.36951704 13.74386946 51 14 C51 14.33 51 14.66 51 15 C16.68 15 -17.64 15 -53 15 C-53 14.67 -53 14.34 -53 14 C-52.27522461 13.9498877 -51.55044922 13.89977539 -50.80371094 13.84814453 C-47.45203008 13.61300434 -44.1010439 13.36904341 -40.75 13.125 C-39.61046875 13.04636719 -38.4709375 12.96773438 -37.296875 12.88671875 C-22.59589565 12.1262592 -22.59589565 12.1262592 -9 7.125 C-7.700625 6.38636719 -7.700625 6.38636719 -6.375 5.6328125 C-3.94780764 3.96411776 -2.00808463 2.14753495 0 0 Z " transform="translate(229,496)" style="fill: #F2F2F2;"/><path d="M0 0 C5.63535691 0.80505099 8.04912615 1.21845754 12.71484375 3.72265625 C13.72998047 4.26083984 14.74511719 4.79902344 15.79101562 5.35351562 C16.82935547 5.91748047 17.86769531 6.48144531 18.9375 7.0625 C20.53561523 7.91424805 20.53561523 7.91424805 22.16601562 8.78320312 C24.78253724 10.17946354 27.39345925 11.58522071 30 13 C29.85976355 14.74644393 29.71419232 16.49245997 29.56640625 18.23828125 C29.48592041 19.21063721 29.40543457 20.18299316 29.32250977 21.18481445 C28.92538728 24.6512939 28.10105633 27.69683101 27 31 C26.34 31 25.68 31 25 31 C23.703125 29.20703125 23.703125 29.20703125 22.25 26.8125 C18.79146656 21.44755545 14.99878293 17.50486814 9 15 C6.18503259 14.54724722 6.18503259 14.54724722 3.25 14.375 C1.5175 14.25125 -0.215 14.1275 -2 14 C-1.34 9.38 -0.68 4.76 0 0 Z " transform="translate(410,93)" style="fill: #F6F6F6;"/><path d="M0 0 C-0.33 2.97 -0.66 5.94 -1 9 C-10.88852042 10.26967407 -20.78571059 11.46361095 -30.6875 12.625 C-31.82171387 12.76010986 -32.95592773 12.89521973 -34.12451172 13.03442383 C-35.20104004 13.15970459 -36.27756836 13.28498535 -37.38671875 13.4140625 C-38.34795654 13.5270166 -39.30919434 13.6399707 -40.29956055 13.75634766 C-42.88414348 13.98954662 -45.40668338 14.0441892 -48 14 C-47.01 11.03 -46.02 8.06 -45 5 C-40.52184234 4.27597726 -36.04191902 3.56450712 -31.56005859 2.86376953 C-30.04098045 2.62455727 -28.52240364 2.3821354 -27.00439453 2.13623047 C-17.93624852 0.66976461 -9.22271694 -0.40156968 0 0 Z " transform="translate(164,21)" style="fill: #F0F0F0;"/><path d="M0 0 C5.37741043 -0.19789293 10.0230701 0.46923576 15.234375 1.7578125 C16.37413788 2.03611404 16.37413788 2.03611404 17.53692627 2.32003784 C19.13141106 2.71389195 20.72472936 3.11249614 22.31689453 3.515625 C24.75167903 4.12542051 27.19327144 4.69948983 29.63671875 5.2734375 C31.19064886 5.66189 32.74405567 6.05244321 34.296875 6.4453125 C35.02501404 6.6112088 35.75315308 6.7771051 36.50335693 6.94802856 C40.32543843 7.96137926 41.80279933 8.70721401 44.04394531 12.03466797 C45 15 45 15 44 17 C43.31421875 16.84144531 42.6284375 16.68289062 41.921875 16.51953125 C28.69982538 13.57225172 15.34043411 11.33714197 2 9 C1.34 6.03 0.68 3.06 0 0 Z " transform="translate(352,28)" style="fill: #F0F0F0;"/><path d="M0 0 C-0.66 2.64 -1.32 5.28 -2 8 C-6.00128469 8.83900993 -10.00317135 9.67508187 -14.00561523 10.50854492 C-15.36450395 10.79193572 -16.72323141 11.07610101 -18.08178711 11.36108398 C-20.04497424 11.77275488 -22.00881087 12.18132453 -23.97265625 12.58984375 C-25.15093994 12.83597412 -26.32922363 13.08210449 -27.54321289 13.33569336 C-29.97518224 13.80305607 -32.42269382 14.19290004 -34.87670898 14.52563477 C-37.86072532 14.66308801 -37.86072532 14.66308801 -39 16 C-40.99958364 16.04080783 -43.00045254 16.04254356 -45 16 C-43.51942272 10.32445377 -43.51942272 10.32445377 -41.20483398 8.87866211 C-38.96768174 7.98712065 -36.81814034 7.36010665 -34.47265625 6.81640625 C-33.16941406 6.51029419 -33.16941406 6.51029419 -31.83984375 6.19799805 C-30.46505859 5.88342651 -30.46505859 5.88342651 -29.0625 5.5625 C-28.1240625 5.34440674 -27.185625 5.12631348 -26.21875 4.90161133 C-24.34304432 4.46606447 -22.46691125 4.0323536 -20.59033203 3.60058594 C-18.35747533 3.08288306 -16.12908282 2.55108488 -13.90234375 2.0078125 C-12.21818359 1.60175781 -12.21818359 1.60175781 -10.5 1.1875 C-9.5409375 0.95417969 -8.581875 0.72085937 -7.59375 0.48046875 C-4.99993823 -0.00001144 -2.63130482 -0.09057027 0 0 Z " transform="translate(107,28)" style="fill: #EFEFEF;"/><path d="M0 0 C8.83850759 2.38878583 16.75829536 7.52848983 24 13 C23.01 13.495 23.01 13.495 22 14 C19.71484375 13.109375 19.71484375 13.109375 16.9375 11.75 C13.29173686 9.99907428 9.84086715 8.60804477 5.9375 7.5625 C3.75 6.890625 3.75 6.890625 2 6 C0.4375 2.8125 0.4375 2.8125 0 0 Z " transform="translate(408,43)" style="fill: #DADADA;"/><path d="M0 0 C-0.33 1.65 -0.66 3.3 -1 5 C-1.61746094 5.18175781 -2.23492187 5.36351562 -2.87109375 5.55078125 C-8.62042737 7.25720447 -14.32305366 9.06654726 -20 11 C-16.8581736 7.51079722 -13.57020193 5.45034642 -9.4375 3.25 C-8.30183594 2.63640625 -7.16617188 2.0228125 -5.99609375 1.390625 C-3 0 -3 0 0 0 Z " transform="translate(50,44)" style="fill: #DCDCDC;"/><path d="M0 0 C0.66 0.33 1.32 0.66 2 1 C2 1.99 2 2.98 2 4 C0.21189234 4.69670416 -1.58062052 5.38211189 -3.375 6.0625 C-4.37273438 6.44535156 -5.37046875 6.82820313 -6.3984375 7.22265625 C-9 8 -9 8 -11 7 C-9.21475351 5.80286983 -7.4215972 4.61752721 -5.625 3.4375 C-4.62726562 2.77621094 -3.62953125 2.11492188 -2.6015625 1.43359375 C-1.74304687 0.96050781 -0.88453125 0.48742188 0 0 Z " transform="translate(41,47)" style="fill: #C3C3C3;"/><path d="M0 0 C0 7.26 0 14.52 0 22 C-2 20 -2 20 -2.22705078 18.12060547 C-2.21657715 17.37697754 -2.20610352 16.63334961 -2.1953125 15.8671875 C-2.18886719 15.06152344 -2.18242188 14.25585938 -2.17578125 13.42578125 C-2.15064453 12.16314453 -2.15064453 12.16314453 -2.125 10.875 C-2.11597656 10.02550781 -2.10695312 9.17601563 -2.09765625 8.30078125 C-2.07405647 6.20040116 -2.03818483 4.10016556 -2 2 C-2.66 1.67 -3.32 1.34 -4 1 C-2 0 -2 0 0 0 Z " transform="translate(47,60)" style="fill: #D1D1D1;"/><path d="M0 0 C4.67105792 1.55701931 8.08705685 4.08447373 12 7 C11.01 7.495 11.01 7.495 10 8 C7.3984375 7.00390625 7.3984375 7.00390625 4.375 5.5625 C3.37210937 5.08941406 2.36921875 4.61632813 1.3359375 4.12890625 C0.56507813 3.75636719 -0.20578125 3.38382813 -1 3 C-0.67 2.01 -0.34 1.02 0 0 Z " transform="translate(420,49)" style="fill: #C0C0C0;"/></svg>